<?xml version="1.0" encoding="UTF-8" standalone="no"?>
<svg
   xmlns:dc="http://purl.org/dc/elements/1.1/"
   xmlns:cc="http://creativecommons.org/ns#"
   xmlns:rdf="http://www.w3.org/1999/02/22-rdf-syntax-ns#"
   xmlns:svg="http://www.w3.org/2000/svg"
   xmlns="http://www.w3.org/2000/svg"
   viewBox="0 0 5333.3335 5333.3335"
   height="5333.3335"
   width="5333.3335"
   xml:space="preserve"
   id="svg2"
   version="1.1"><metadata
     id="metadata8"><rdf:RDF><cc:Work
         rdf:about=""><dc:format>image/svg+xml</dc:format><dc:type
           rdf:resource="http://purl.org/dc/dcmitype/StillImage" /></cc:Work></rdf:RDF></metadata><defs
     id="defs6" /><g
     transform="matrix(1.3333333,0,0,-1.3333333,0,5333.3333)"
     id="g10"><g
       transform="scale(0.1)"
       id="g12"><g
         transform="scale(2.45399)"
         id="g14"><path
           id="path16"
           style="fill:#eaeaea;fill-opacity:1;fill-rule:nonzero;stroke:none"
           d="M 16300,0 H 0 V 16300 H 16300 V 0" /></g><g
         transform="scale(1.94612)"
         id="g18"><path
           id="path20"
           style="fill:#ffffff;fill-opacity:1;fill-rule:nonzero;stroke:none"
           d="m 15053.3,15569.8 v 0 l -283.6,-2064 -212.7,-1549.3 -84.1,-612.1 H 11570 l -110.7,761.9 -189.9,1311.1 -312,2150.5 v 0 l 1009.6,421.1 258.9,90.8 120.6,212.2 129.9,-71.9 47.8,-26.4 313.1,-196.3 193,-231 230.5,-26.7 -31.4,266.8 339.8,212.2 43.5,27.4 86,53.9 117.8,-233 1236.8,-497.2" /></g><g
         transform="scale(1.69643)"
         id="g22"><path
           id="path24"
           style="fill:#d0ae78;fill-opacity:1;fill-rule:nonzero;stroke:none"
           d="m 16243,15967.7 c 0,-183.5 -610.6,-332.3 -1363.7,-332.3 -753.2,0 -1363.7,148.8 -1363.7,332.3 0,183.5 610.5,332.3 1363.7,332.3 753.1,0 1363.7,-148.8 1363.7,-332.3" /></g><g
         transform="scale(1.6862)"
         id="g26"><path
           id="path28"
           style="fill:#ad8c5c;fill-opacity:1;fill-rule:nonzero;stroke:none"
           d="m 15935.7,16064.6 c 0,-130.1 -432.6,-235.5 -966.2,-235.5 -533.6,0 -966.1,105.4 -966.1,235.5 0,130 432.5,235.4 966.1,235.4 533.6,0 966.2,-105.4 966.2,-235.4" /></g><g
         transform="scale(1.88242)"
         id="g30"><path
           id="path32"
           style="fill:#f2ac2f;fill-opacity:1;fill-rule:nonzero;stroke:none"
           d="m 13699.1,16162.5 c 0,-75.9 -104.2,-137.4 -232.8,-137.4 -128.6,0 -232.9,61.5 -232.9,137.4 0,75.9 104.3,137.5 232.9,137.5 128.6,0 232.8,-61.6 232.8,-137.5" /></g><g
         transform="scale(1.87889)"
         id="g34"><path
           id="path36"
           style="fill:#ffca5e;fill-opacity:1;fill-rule:nonzero;stroke:none"
           d="m 13664.7,16197.8 c 0,-56.5 -77.5,-102.2 -173.1,-102.2 -95.6,0 -173.2,45.7 -173.2,102.2 0,56.4 77.6,102.2 173.2,102.2 95.6,0 173.1,-45.8 173.1,-102.2" /></g><g
         transform="scale(2.24463)"
         id="g38"><path
           id="path40"
           style="fill:#936852;fill-opacity:1;fill-rule:nonzero;stroke:none"
           d="m 12083.6,15545.5 h -6.9 c -0.2,521.5 -353.7,754.5 -786.6,754.5 -433.2,0 -776.3,-210.2 -776.3,-757.8 0,-569.2 352.4,-1259.5 785.6,-1259.5 433.1,0 777.3,693.1 777.3,1262.3 0,0.1 0,0.1 0,0.2 l 6.9,0.3" /></g><g
         transform="scale(2.10569)"
         id="g42"><path
           id="path44"
           style="fill:#efc2a3;fill-opacity:1;fill-rule:nonzero;stroke:none"
           d="m 12809.8,16007 c -19.1,-34.6 -7.4,-69.8 -39.5,-119.7 -38.9,-59.9 -79,-81 -96.3,-82.8 0.6,10 1.3,20.6 1.9,31.1 0,4.1 0.6,8.8 0.6,12.9 5.5,97.5 6.8,224.3 6.8,312.4 v 44.6 l 1.2,66.3 c 23.5,21.2 72.9,28.2 95.1,22.3 9.3,-2.3 19.7,-7 28.4,-14.1 9.3,-6.4 17.3,-15.2 21.6,-26.4 14.8,-35.8 18.5,-177.9 -19.8,-246.6" /></g><g
         transform="scale(2.10569)"
         id="g46"><path
           id="path48"
           style="fill:#efc2a3;fill-opacity:1;fill-rule:nonzero;stroke:none"
           d="m 11413,15804.5 c -4.9,-4.1 -58.9,22.9 -97.5,82.8 -31.9,49.9 -20.2,85.1 -39.9,119.7 -37.4,68.7 -33.7,210.8 -19,246.6 9.2,21.7 31.3,35.8 49.7,40.5 22.1,5.9 66.9,-1.7 90.2,-22.9 l 1.8,-39.9 v -11.1 c 0.6,-7.1 0.6,-14.1 0.6,-21.8 0,-100.9 -1.2,-286.5 14.1,-393.9" /></g><g
         transform="scale(1.32463)"
         id="g50"><path
           id="path52"
           style="fill:#efc2a3;fill-opacity:1;fill-rule:nonzero;stroke:none"
           d="m 15916.2,13269.5 c -46.7,-205.8 -55.7,-404 97.1,-1009 55.3,-218.5 -538.4,49.9 -641,394.8 -43.4,148.3 -98.8,476.3 -95.9,656.2 3.1,189.4 182.6,830.5 182.6,830.5 160.3,-62.5 415.8,-123.2 605.1,-113.1 l 2.9,-0.8 34.5,-239.7 c 0,0 68.9,-513.2 131.2,-798.5 67.3,-311.2 -248.5,-246.8 -316.5,279.6" /></g><g
         transform="scale(1.33231)"
         id="g54"><path
           id="path56"
           style="fill:#ffffff;fill-opacity:1;fill-rule:nonzero;stroke:none"
           d="m 16139.5,13922.2 c -45.5,-41.5 -122.5,-56.6 -215.3,-53.8 -188.3,4.8 -437,85.9 -591,161.4 -74.2,35.9 -125.3,70.8 -138.3,95.3 -51.9,100.1 113.2,645.6 113.2,645.6 l 507.6,-50.1 398,-39.6 c 0,0 86.3,-611.6 -74.2,-758.8" /></g><g
         transform="scale(1.88325)"
         id="g58"><path
           id="path60"
           style="fill:#ffffff;fill-opacity:1;fill-rule:nonzero;stroke:none"
           d="m 11470.4,10376.4 -281.6,27.6 c -1.9,2 -3.3,3.3 -3.3,3.3 l -355.7,31.5 c -178.6,214.6 -280.3,344.6 -391.3,837.6 -110.2,493 62.4,1933.1 53.2,3042.5 -9.2,1109.4 386.7,1677.8 472.6,1829.5 85.4,151.6 380.8,0 380.8,0 0,0 17.7,1.9 46.6,2.6 l 313.1,-2156.4 c -30.2,-210 -53.8,-554.7 12.4,-964.9 110.3,-682.7 -164,-2472.7 -246.8,-2653.3" /></g><g
         transform="scale(1.87192)"
         id="g62"><path
           id="path64"
           style="fill:#efc2a3;fill-opacity:1;fill-rule:nonzero;stroke:none"
           d="m 16229.8,8939.8 c -72.8,-244.02 -493.1,-433.61 -453.8,-279.01 108.4,428 102.2,568.24 69.3,713.92 -48.5,-372.46 -271.9,-417.81 -224.2,-197.66 44.4,201.88 93.4,564.98 93.4,564.98 l 24.6,169.66 2,0.48 c 133.9,-7.21 314.8,35.58 428.2,79.65 0,0 126.7,-453.75 128.8,-587.73 1.9,-127.36 -37.5,-359.42 -68.3,-464.29" /></g><g
         transform="scale(1.87397)"
         id="g66"><path
           id="path68"
           style="fill:#ffffff;fill-opacity:1;fill-rule:nonzero;stroke:none"
           d="m 16263.1,10041.6 c -9.3,-17.4 -45.5,-42.08 -98.3,-67.48 -109.5,-53.47 -286.3,-110.94 -420.3,-114.25 -65.9,-2.03 -120.7,8.7 -153,38.05 -114.1,104.28 -52.8,537.18 -52.8,537.18 l 283.1,28.1 360.8,35.4 c 0,0 117.4,-386.2 80.5,-457" /></g><g
         transform="scale(1.91841)"
         id="g70"><path
           id="path72"
           style="fill:#ffffff;fill-opacity:1;fill-rule:nonzero;stroke:none"
           d="m 16191.7,11069.7 c -108.9,-483.9 -208.7,-611.5 -384,-822.2 l -349.3,-30.9 c 0,0 -1.2,-1.3 -3.2,-3.3 l -276.4,-27.1 c -81.3,177.3 -350.6,1934.5 -242.3,2604.7 75.3,465.3 32.2,845.4 -1.3,1034.2 l 279,2031.8 c 52.9,-1.3 87.6,-4.5 87.6,-4.5 0,0 290,148.9 373.8,0 84.4,-148.8 473,-706.9 464,-1795.9 -9.1,-1089.1 160.4,-2502.8 52.1,-2986.8" /></g><g
         transform="scale(1.56188)"
         id="g74"><path
           id="path76"
           style="fill:#333333;fill-opacity:1;fill-rule:nonzero;stroke:none"
           d="m 16238.3,2386.8 c -98.2,-307.13 -463.8,-450.36 -859.6,-450.36 -229.5,0 -413.1,239.01 -469.3,554.02 -55.4,303.15 335.5,874.58 364,913.38 0,-22.15 260.5,60.12 568.3,36.43 325.3,-26.12 374.4,-71.26 374.4,-71.26 0.8,-4.74 1.6,-8.71 2.4,-13.45 81.5,-513.67 19.8,-968.76 19.8,-968.76" /></g><g
         transform="scale(1.68861)"
         id="g78"><path
           id="path80"
           style="fill:#333333;fill-opacity:1;fill-rule:nonzero;stroke:none"
           d="m 16248.1,2303.55 c -52.8,-291.37 -139.2,-540.27 -459.1,-540.27 -311.1,0 -603.9,166.17 -769.4,444.39 0,0 57.1,420.94 -18.3,896.06 0,4.38 0.7,8.05 1.4,12.44 h 2.2 c 0,0 0,0 0,0.71 19.1,9.53 190.4,86.4 481,80.54 245.3,-5.87 388.8,-40.27 412.2,-46.14 v -0.71 h 3.6 c 0,0 398.3,-556.37 346.4,-847.02" /></g><g
         transform="scale(2.18548)"
         id="g82"><path
           id="path84"
           style="fill:#f7cbad;fill-opacity:1;fill-rule:nonzero;stroke:none"
           d="m 11827.2,15576 c 0,50.3 32.8,90.5 73,90.5 40.2,0 73,-40.2 73,-90.5 0,-49.8 -32.8,-90.5 -73,-90.5 -40.2,0 -73,40.7 -73,90.5 z m -523.2,-90.5 c -40.2,0 -73,40.7 -73,90.5 0,50.3 32.8,90.5 73,90.5 40.7,0 73.5,-40.2 73.5,-90.5 0,-49.8 -32.8,-90.5 -73.5,-90.5 z m 345.9,539.3 c -359.2,0 -472.5,275.2 -574.1,93 -25.2,-45.2 -108.9,-317 -99.9,-479.1 v -10.7 c 0.5,-6.8 0.5,-13.6 0.5,-20.9 2.3,-133 5.7,-303.2 12.5,-371.7 0,-2.8 0.6,-5.1 0.6,-7.9 7.4,-77.5 14.1,-190 35.6,-238.7 37.3,-84.8 77.5,-130.1 127.9,-169.1 31,-24.3 65.5,-45.8 105.7,-73 120.5,-82 242.7,-104.1 341.1,-104.1 105.8,0 264.2,42.5 341.6,101.3 31.2,23.7 65.1,48.1 97.9,75.2 0,0.6 0,0.6 0,0.6 60,49.8 117.7,110.3 151.6,196.8 17,43.6 25.5,155 28.3,211 0.5,9.6 1.1,19.8 1.7,30 0,4 0.5,8.5 0.5,12.4 2.3,65.1 4.6,189 6.3,301 v 43 l 1.1,63.9 c 1.1,68.4 -62.5,231.2 -99.1,323.5 -92.1,232.5 -193.3,23.5 -479.8,23.5" /></g><g
         transform="scale(2.10054)"
         id="g86"><path
           id="path88"
           style="fill:#775546;fill-opacity:1;fill-rule:nonzero;stroke:none"
           d="m 11837.6,16205.8 c 0,-51.8 -34.1,-94.1 -76.5,-94.1 -41.8,0 -75.9,42.3 -75.9,94.1 0,52.4 34.1,94.2 75.9,94.2 42.4,0 76.5,-41.8 76.5,-94.2" /></g><g
         transform="scale(2.10054)"
         id="g90"><path
           id="path92"
           style="fill:#775546;fill-opacity:1;fill-rule:nonzero;stroke:none"
           d="m 12457.3,16205.8 c 0,-51.8 -34.1,-94.1 -75.9,-94.1 -41.8,0 -75.9,42.3 -75.9,94.1 0,52.4 34.1,94.2 75.9,94.2 41.8,0 75.9,-41.8 75.9,-94.2" /></g><g
         transform="scale(1.55385)"
         id="g94"><path
           id="path96"
           style="fill:#ffffff;fill-opacity:1;fill-rule:nonzero;stroke:none"
           d="m 16300,3386.43 c 0,0 -49.4,45.38 -376.4,71.63 -309.4,23.82 -571.2,-58.88 -571.2,-36.62 0,0.78 0,0.78 0,0.78 0.9,0.83 0.9,1.61 0.9,1.61 33.4,689.77 -371.6,1681.82 -593.5,2475.85 -151.2,545.74 -142.5,1064.46 -142.5,1064.46 556.9,-318.25 1485.4,0 1485.4,0 -225.2,-1684.21 197.3,-3577.71 197.3,-3577.71" /></g><g
         transform="scale(1.7176)"
         id="g98"><path
           id="path100"
           style="fill:#ffffff;fill-opacity:1;fill-rule:nonzero;stroke:none"
           d="m 16166.7,5337.21 c -200.1,-718.32 -567.2,-1615.1 -536.9,-2239.11 -23,5.77 -164.1,39.59 -405.3,45.35 -285.6,5.77 -454.1,-69.8 -472.8,-79.18 11.5,48.27 401.6,1733.88 200.1,3235.91 0,0 526.1,-179.9 995.4,-113 23,3.61 46.8,7.92 69.8,12.28 23.7,5.01 48.2,10.77 71.9,17.23 10.1,2.91 19.5,5.07 29.6,8.68 25.2,7.16 49.6,15.84 74.1,25.91 10.8,4.31 22.3,8.61 33.1,13.68 1.5,0.7 3.6,1.4 5.1,2.15 20.1,9.32 49.8,25.45 69.2,36.27 -0.8,-2.15 -1.5,-14.14 -1.5,-16.3 0,-7.91 -14.5,-530.27 -131.8,-949.87" /></g><g
         transform="scale(1.7753)"
         id="g102"><path
           id="path104"
           style="fill:#ffe161;fill-opacity:1;fill-rule:nonzero;stroke:none"
           d="m 15823.7,12641 h -3087.5 c 0,0 -475.7,-1102.3 -394.9,-1996.4 79,-865.86 -36,-2016.88 408.5,-3512.06 -123.9,-232.3 44.1,-1051.77 44.1,-1051.77 487.5,-343.32 1300.1,0 1300.1,0 0,0 180.7,2398.3 185.9,3923.93 5.2,-1525.23 185.9,-3923.93 185.9,-3923.93 0,0 509.1,-214.55 963.1,-134.74 22.2,4.29 45.3,9.41 67.5,14.59 23,5.97 46.7,12.85 69.6,20.62 9.8,3.44 18.9,5.97 28.6,10.25 24.4,8.62 48,18.93 71.7,30.93 10.5,5.18 21.6,10.31 32.1,16.33 1.4,0.85 3.4,1.69 4.9,2.54 19.4,11.15 48.1,30.41 66.9,43.31 0.6,10.09 147.3,818.46 37.7,1047.04 455.3,1587.73 331.5,2645.35 410.6,3512.96 81.5,894.1 -394.8,1996.4 -394.8,1996.4" /></g><g
         transform="scale(1.987)"
         id="g106"><path
           id="path108"
           style="fill:#8cc63f;fill-opacity:1;fill-rule:nonzero;stroke:none"
           d="m 13234.2,16299.4 v 0.6 h 15.5 l -15.5,-0.6" /></g><g
         transform="scale(2.1324)"
         id="g110"><path
           id="path112"
           style="fill:#936852;fill-opacity:1;fill-rule:nonzero;stroke:none"
           d="m 11708.5,16129.5 c -102,51.5 -235,43.7 -273.2,31.6 -49.7,-15.6 -48.5,11.8 -40.9,23.2 1.2,1.6 178.2,115.7 351.7,-5.2 11.1,-7.8 10.7,-36.9 -0.1,-44 -14.5,-9.5 -21.7,-13.5 -37.5,-5.6" /></g><g
         transform="scale(2.13118)"
         id="g114"><path
           id="path116"
           style="fill:#936852;fill-opacity:1;fill-rule:nonzero;stroke:none"
           d="m 12078.5,16132.4 c 94.7,49.5 214.8,39.2 248.9,26.4 44.3,-16.6 44.5,10.8 38.1,22.4 -1,1.6 -156,118.8 -318.7,1.4 -10.4,-7.5 -11.4,-36.6 -2,-43.9 12.7,-9.8 19.1,-13.9 33.7,-6.3" /></g><g
         transform="scale(2.09588)"
         id="g118"><path
           id="path120"
           style="fill:#e5b798;fill-opacity:1;fill-rule:nonzero;stroke:none"
           d="m 12117,15834.7 c -5.6,0 -11.5,0.3 -17.9,1.1 -4.8,0.5 -8.3,5 -7.7,9.8 0.5,4.8 4.8,8.8 9.8,7.7 34,-3.8 60.5,4.7 75,24.4 12.1,16.4 14.2,39.2 5.3,59.5 -4.2,9.5 -8.8,19.2 -13.4,29.2 -36.8,79.6 -82.5,178.6 -45.9,325.9 1.1,4.7 5.5,7.7 10.6,6.5 4.8,-1.2 7.7,-6 6.5,-10.8 -35.1,-141.3 9.2,-237.1 44.8,-314.1 4.8,-10.2 9.3,-20 13.5,-29.6 11.5,-26.1 8.8,-55.6 -7.2,-77.2 -9.4,-12.7 -30.8,-32.4 -73.4,-32.4" /></g><g
         transform="scale(2.01627)"
         id="g122"><path
           id="path124"
           style="fill:#edb0a4;fill-opacity:1;fill-rule:nonzero;stroke:none"
           d="m 12406.4,16207.1 c -51,22.8 -80.1,92.9 -80.1,92.9 0,0 54.6,-11 97.2,-9.7 76.7,2.4 102.5,-11.5 164.9,-12.2 61.7,-0.6 88.9,21.9 174,9.8 39.1,-5.6 88,12.1 88,12.1 0,0 -28.4,-55.2 -82.1,-88.3 -45,-27.8 -75.6,-41 -179.9,-42.6 -108.9,-1.7 -136.1,17.4 -182,38" /></g><g
         transform="scale(1.50788)"
         id="g126"><path
           id="path128"
           style="fill:#296e91;fill-opacity:1;fill-rule:nonzero;stroke:none"
           d="m 15892.4,16063.8 -1045.8,-150.9 -34,236.2 1045.7,150.9 34.1,-236.2" /></g><g
         transform="scale(1.73963)"
         id="g130"><path
           id="path132"
           style="fill:#296e91;fill-opacity:1;fill-rule:nonzero;stroke:none"
           d="m 16270.9,13789.6 -906.7,129.1 29.1,204.7 906.7,-129.1 -29.1,-204.7" /></g><g
         transform="scale(1.95985)"
         id="g134"><path
           id="path136"
           style="fill:#f0f0f0;fill-opacity:1;fill-rule:nonzero;stroke:none"
           d="m 12437,16300 -268.5,-284.1 417,-628.3 353.5,268.4 331.2,-268.4 440.4,639.1 -253.4,273.3 H 12437" /></g><g
         transform="scale(1.987)"
         id="g138"><path
           id="path140"
           style="fill:#efc2a3;fill-opacity:1;fill-rule:nonzero;stroke:none"
           d="m 12762.2,15442.1 -495.2,635.2 c 23.6,113.8 0,222.7 0,222.7 34.2,-26.7 72.1,-50.4 116.3,-80.3 132.5,-90.2 266.9,-114.4 375.2,-114.4 116.3,0 290.6,46.6 375.8,111.3 34.2,26.2 71.5,52.9 107.6,82.8 -0.6,-11.8 -6.2,-179.8 19.9,-239.5 l -499.6,-617.8" /></g><g
         transform="scale(1.64586)"
         id="g142"><path
           id="path144"
           style="fill:#f2e8da;fill-opacity:1;fill-rule:nonzero;stroke:none"
           d="m 15748.8,2865.86 24.7,-278.4 475.6,42.17 -24.7,278.45 z m 2.7,-328.83 c -12.4,0 -22.9,9.48 -24,22.06 l -29,326.64 c -0.6,6.38 1.4,12.69 5.5,17.62 4.2,4.92 10,8.02 16.4,8.57 l 523.8,46.47 c 13.8,1.04 25.1,-8.68 26.2,-21.93 l 29,-326.64 c 0.6,-6.38 -1.4,-12.76 -5.5,-17.68 -4.2,-4.92 -10.1,-7.96 -16.4,-8.57 l -523.8,-46.48 c -0.7,-0.06 -1.4,-0.06 -2.2,-0.06" /></g><g
         transform="scale(1.53015)"
         id="g146"><path
           id="path148"
           style="fill:#f2e8da;fill-opacity:1;fill-rule:nonzero;stroke:none"
           d="m 15733.7,3128 -26.6,-299.51 511.6,-45.36 26.6,299.45 z m 506.3,-399.05 -563.4,50 c -6.9,0.65 -13.2,3.92 -17.6,9.21 -4.4,5.3 -6.6,12.16 -6,19.02 l 31.2,351.34 c 1.3,14.25 13.4,24.7 28.2,23.59 l 563.4,-49.99 c 6.8,-0.59 13.2,-3.93 17.6,-9.22 4.4,-5.29 6.6,-12.09 6,-18.95 l -31.2,-351.34 c -1.2,-13.53 -12.5,-23.72 -25.9,-23.72 -0.7,0 -1.5,0 -2.3,0.06" /></g><g
         transform="scale(2.29057)"
         id="g150"><path
           id="path152"
           style="fill:#7f5950;fill-opacity:1;fill-rule:nonzero;stroke:none"
           d="m 11654.2,15181.8 c -431.8,-49.9 -971.4,-9.3 -1235.6,-14.7 -535.13,-11.1 -616.99,333.8 -496.23,320.1 261.63,-29.5 292.43,27 366.83,78.7 98.6,68.5 40.7,130.8 109.4,587.7 20,132.7 192.6,-0.6 653.8,-0.6 415,0 645.9,147 667.6,6.2 65.3,-422.4 -6.8,-497 104.3,-567.7 131.1,-83.5 130.6,-90.7 300.3,-104.3 86.3,-6.9 121.6,-236.9 -470.4,-305.4" /></g><g
         transform="scale(2.2125)"
         id="g154"><path
           id="path156"
           style="fill:#634742;fill-opacity:1;fill-rule:nonzero;stroke:none"
           d="m 12231.7,16149.3 h -1558.4 l 5.8,150.7 h 1536 l 16.6,-150.7" /></g><g
         transform="scale(1.95943)"
         id="g158"><path
           id="path160"
           style="fill:#e82828;fill-opacity:1;fill-rule:nonzero;stroke:none"
           d="m 15000.5,15536 -7.7,-61.3 -258.6,-2015.5 -194,-1512.4 68.8,-1145.4 -1228,-148.4 -256,3002.9 c 109.3,863.8 344.9,2470.8 344.9,2470.8 l 223.9,173.3 180.8,-316.4 1125.9,-447.6" /></g><g
         transform="scale(1.96211)"
         id="g162"><path
           id="path164"
           style="fill:#e82828;fill-opacity:1;fill-rule:nonzero;stroke:none"
           d="m 12689.8,13637.3 -131.8,-2998.9 -1254.3,148.3 25.7,1289.9 -167.2,1278.1 -302.7,2098.6 -8.2,63.2 1153,434.4 178.7,349.1 240.5,-213.4 c 0,0 142.3,-1558.6 266.3,-2449.3" /></g><g
         transform="scale(1.46318)"
         id="g166"><path
           id="path168"
           style="fill:#97704f;fill-opacity:1;fill-rule:nonzero;stroke:none"
           d="m 15336.6,15478.4 944.7,-109 18.7,154.1 -944.7,108.9 -18.7,-154" /></g><g
         transform="scale(1.58085)"
         id="g170"><path
           id="path172"
           style="fill:#ffca5e;fill-opacity:1;fill-rule:nonzero;stroke:none"
           d="m 15543.8,16207 c -0.6,-50.3 -42.9,-90.5 -94.3,-89.9 -51.4,0.7 -92.6,42 -92,92.3 0.7,50.4 42.9,90.6 94.3,89.9 51.5,-0.6 92.7,-41.9 92,-92.3" /></g><g
         transform="scale(1.51515)"
         id="g174"><path
           id="path176"
           style="fill:#ffca5e;fill-opacity:1;fill-rule:nonzero;stroke:none"
           d="m 16168.6,16203 c -0.7,-52.6 -44.8,-94.5 -98.4,-93.8 -53.7,0.7 -96.6,43.8 -96,96.3 0.8,52.5 44.8,94.5 98.4,93.8 53.7,-0.8 96.7,-43.9 96,-96.3" /></g><g
         transform="scale(1.49844)"
         id="g178"><path
           id="path180"
           style="fill:#ffca5e;fill-opacity:1;fill-rule:nonzero;stroke:none"
           d="m 16299.3,15669.1 c -0.7,-53.1 -45.2,-95.5 -99.5,-94.9 -54.3,0.8 -97.7,44.4 -97.1,97.4 0.8,53.1 45.3,95.6 99.6,94.9 54.3,-0.7 97.7,-44.3 97,-97.4" /></g><g
         transform="scale(1.49387)"
         id="g182"><path
           id="path184"
           style="fill:#ffca5e;fill-opacity:1;fill-rule:nonzero;stroke:none"
           d="m 16299.3,15000.2 c -0.7,-53.2 -45.4,-95.8 -99.8,-95.1 -54.5,0.7 -98,44.4 -97.3,97.7 0.7,53.2 45.4,95.8 99.8,95.1 54.4,-0.7 98,-44.5 97.3,-97.7" /></g><g
         transform="scale(1.48929)"
         id="g186"><path
           id="path188"
           style="fill:#ffca5e;fill-opacity:1;fill-rule:nonzero;stroke:none"
           d="m 16299.3,14327.3 c -0.6,-53.5 -45.5,-96.2 -100.1,-95.5 -54.6,0.7 -98.3,44.6 -97.6,98 0.7,53.4 45.5,96.1 100.1,95.4 54.6,-0.7 98.3,-44.6 97.6,-97.9" /></g><g
         transform="scale(1.73587)"
         id="g190"><path
           id="path192"
           style="fill:#97704f;fill-opacity:1;fill-rule:nonzero;stroke:none"
           d="m 16300,13046.8 -796.3,-91.8 -15.7,129.8 796.3,91.9 15.7,-129.9" /></g><g
         transform="scale(1.62319)"
         id="g194"><path
           id="path196"
           style="fill:#ffca5e;fill-opacity:1;fill-rule:nonzero;stroke:none"
           d="m 16118,15784.2 c 0.6,-49 41.7,-88.1 91.8,-87.5 50.1,0.7 90.2,40.9 89.6,89.9 -0.7,49 -41.8,88.2 -91.9,87.5 -50.1,-0.6 -90.2,-40.8 -89.5,-89.9" /></g><g
         transform="scale(1.62776)"
         id="g198"><path
           id="path200"
           style="fill:#ffca5e;fill-opacity:1;fill-rule:nonzero;stroke:none"
           d="m 16118.5,15082.1 c 0.6,-48.9 41.6,-88 91.6,-87.3 49.9,0.6 89.9,40.8 89.3,89.6 -0.7,48.8 -41.7,88 -91.7,87.3 -49.9,-0.7 -89.9,-40.8 -89.2,-89.6" /></g><g
         transform="scale(1.63233)"
         id="g202"><path
           id="path204"
           style="fill:#ffca5e;fill-opacity:1;fill-rule:nonzero;stroke:none"
           d="m 16118.9,14383.8 c 0.7,-48.7 41.5,-87.7 91.4,-87.1 49.8,0.7 89.7,40.7 89,89.4 -0.6,48.8 -41.5,87.7 -91.3,87.1 -49.8,-0.6 -89.7,-40.7 -89.1,-89.4" /></g><g
         transform="scale(1.6369)"
         id="g206"><path
           id="path208"
           style="fill:#ffca5e;fill-opacity:1;fill-rule:nonzero;stroke:none"
           d="m 16119.5,13689.5 c 0.6,-48.6 41.4,-87.5 91.1,-86.8 49.6,0.6 89.4,40.6 88.8,89.1 -0.6,48.6 -41.4,87.5 -91.1,86.8 -49.7,-0.6 -89.4,-40.5 -88.8,-89.1" /></g><g
         transform="scale(1.64147)"
         id="g210"><path
           id="path212"
           style="fill:#ffca5e;fill-opacity:1;fill-rule:nonzero;stroke:none"
           d="m 16120,12999 c 0.6,-48.4 41.3,-87.2 90.8,-86.6 49.5,0.7 89.2,40.5 88.6,89 -0.7,48.4 -41.3,87.1 -90.8,86.5 -49.6,-0.6 -89.2,-40.4 -88.6,-88.9" /></g><g
         transform="scale(1.87352)"
         id="g214"><path
           id="path216"
           style="fill:#d32020;fill-opacity:1;fill-rule:nonzero;stroke:none"
           d="m 13289.9,14282.2 -743.1,1594 514.7,423.8 228.4,-2017.8" /></g><g
         transform="scale(1.87352)"
         id="g218"><path
           id="path220"
           style="fill:#d32020;fill-opacity:1;fill-rule:nonzero;stroke:none"
           d="m 13726.9,14282.2 743.1,1594 -464.5,423.8 -278.6,-2017.8" /></g><g
         transform="scale(1.53262)"
         id="g222"><path
           id="path224"
           style="fill:#000000;fill-opacity:1;fill-rule:nonzero;stroke:none"
           d="m 15509.2,6537.83 c -432.4,0 -671.3,201.09 -675.3,204.55 l -6,94.41 c 5.8,-4.89 629.9,-481.92 1472.1,30.08 l -6.8,-87.63 c -305.2,-185.49 -557,-241.41 -784,-241.41" /></g><g
         transform="scale(1.71622)"
         id="g226"><path
           id="path228"
           style="fill:#000000;fill-opacity:1;fill-rule:nonzero;stroke:none"
           d="m 15691.1,5838.41 c 386.5,0 600,179.58 603.6,182.67 l 5.3,84.31 c -5.1,-4.37 -562.9,-430.36 -1315.7,26.86 l 6.1,-78.25 c 272.8,-165.65 497.8,-215.59 700.7,-215.59" /></g><g
         transform="scale(2.20828)"
         id="g230"><path
           id="path232"
           style="fill:#ffffff;fill-opacity:1;fill-rule:nonzero;stroke:none"
           d="m 6710.56,16160.2 c 0,-77.2 -62.59,-139.8 -139.8,-139.8 -77.21,0 -139.83,62.6 -139.83,139.8 0,77.2 62.62,139.8 139.83,139.8 77.21,0 139.8,-62.6 139.8,-139.8" /></g><g
         transform="scale(2.19365)"
         id="g234"><path
           id="path236"
           style="fill:#ffffff;fill-opacity:1;fill-rule:nonzero;stroke:none"
           d="m 7007.04,16159.3 c 0,-77.8 -63,-140.8 -140.72,-140.8 -77.73,0 -140.73,63 -140.73,140.8 0,77.7 63,140.7 140.73,140.7 77.72,0 140.72,-63 140.72,-140.7" /></g><g
         transform="scale(2.17471)"
         id="g238"><path
           id="path240"
           style="fill:#ffffff;fill-opacity:1;fill-rule:nonzero;stroke:none"
           d="m 7296.37,16158 c 0,-78.4 -63.55,-141.9 -141.95,-141.9 -78.4,0 -141.95,63.5 -141.95,141.9 0,78.4 63.55,142 141.95,142 78.4,0 141.95,-63.6 141.95,-142" /></g><g
         transform="scale(2.14656)"
         id="g242"><path
           id="path244"
           style="fill:#ffffff;fill-opacity:1;fill-rule:nonzero;stroke:none"
           d="m 7532.77,16159.3 c 0,-77.6 -62.99,-140.6 -140.69,-140.6 -77.66,0 -140.65,63 -140.65,140.6 0,77.7 62.99,140.7 140.65,140.7 77.7,0 140.69,-63 140.69,-140.7" /></g><g
         transform="scale(2.11291)"
         id="g246"><path
           id="path248"
           style="fill:#ffffff;fill-opacity:1;fill-rule:nonzero;stroke:none"
           d="m 7733.98,16157.1 c 0,-78.9 -63.99,-142.9 -142.93,-142.9 -78.9,0 -142.88,64 -142.88,142.9 0,78.9 63.98,142.9 142.88,142.9 78.94,0 142.93,-64 142.93,-142.9" /></g><g
         transform="scale(2.0783)"
         id="g250"><path
           id="path252"
           style="fill:#ffffff;fill-opacity:1;fill-rule:nonzero;stroke:none"
           d="m 7862.77,16154.7 c 0,-80.2 -65.05,-145.3 -145.31,-145.3 -80.21,0 -145.26,65.1 -145.26,145.3 0,80.3 65.05,145.3 145.26,145.3 80.26,0 145.31,-65 145.31,-145.3" /></g><g
         transform="scale(2.04941)"
         id="g254"><path
           id="path256"
           style="fill:#ffffff;fill-opacity:1;fill-rule:nonzero;stroke:none"
           d="m 5684.13,16152.7 c 0,-81.4 65.97,-147.4 147.36,-147.4 81.34,0 147.31,66 147.31,147.4 0,81.3 -65.97,147.3 -147.31,147.3 -81.39,0 -147.36,-66 -147.36,-147.3" /></g><g
         transform="scale(2.02157)"
         id="g258"><path
           id="path260"
           style="fill:#ffffff;fill-opacity:1;fill-rule:nonzero;stroke:none"
           d="m 5895.28,16150.6 c 0,-82.4 66.88,-149.3 149.34,-149.3 82.51,0 149.39,66.9 149.39,149.3 0,82.5 -66.88,149.4 -149.39,149.4 -82.46,0 -149.34,-66.9 -149.34,-149.4" /></g><g
         transform="scale(2.2125)"
         id="g262"><path
           id="path264"
           style="fill:#ffffff;fill-opacity:1;fill-rule:nonzero;stroke:none"
           d="m 6167.83,16163.5 c 0,-75.3 61.11,-136.4 136.45,-136.4 75.4,0 136.5,61.1 136.5,136.4 0,75.4 -61.1,136.5 -136.5,136.5 -75.34,0 -136.45,-61.1 -136.45,-136.5" /></g><g
         transform="scale(2.20828)"
         id="g266"><path
           id="path268"
           style="fill:#ffffff;fill-opacity:1;fill-rule:nonzero;stroke:none"
           d="m 5921.84,16163.3 c 0,-75.6 61.23,-136.8 136.76,-136.8 75.49,0 136.71,61.2 136.71,136.8 0,75.5 -61.22,136.7 -136.71,136.7 -75.53,0 -136.76,-61.2 -136.76,-136.7" /></g><g
         transform="scale(2.19397)"
         id="g270"><path
           id="path272"
           style="fill:#ffffff;fill-opacity:1;fill-rule:nonzero;stroke:none"
           d="m 5714.3,16162.4 c 0,-76 61.62,-137.6 137.65,-137.6 75.98,0 137.6,61.6 137.6,137.6 0,76 -61.62,137.6 -137.6,137.6 -76.03,0 -137.65,-61.6 -137.65,-137.6" /></g><g
         transform="scale(2.17545)"
         id="g274"><path
           id="path276"
           style="fill:#ffffff;fill-opacity:1;fill-rule:nonzero;stroke:none"
           d="m 5539.74,16161.2 c 0,-76.6 62.14,-138.8 138.77,-138.8 76.68,0 138.82,62.2 138.82,138.8 0,76.7 -62.14,138.8 -138.82,138.8 -76.63,0 -138.77,-62.1 -138.77,-138.8" /></g><g
         transform="scale(2.14656)"
         id="g278"><path
           id="path280"
           style="fill:#ffffff;fill-opacity:1;fill-rule:nonzero;stroke:none"
           d="m 5456.6,16159.3 c 0,-77.6 62.99,-140.6 140.65,-140.6 77.7,0 140.69,63 140.69,140.6 0,77.7 -62.99,140.7 -140.69,140.7 -77.66,0 -140.65,-63 -140.65,-140.7" /></g><g
         transform="scale(2.11291)"
         id="g282"><path
           id="path284"
           style="fill:#ffffff;fill-opacity:1;fill-rule:nonzero;stroke:none"
           d="m 5462.23,16157.1 c 0,-78.9 63.99,-142.9 142.88,-142.9 78.95,0 142.94,64 142.94,142.9 0,78.9 -63.99,142.9 -142.94,142.9 -78.89,0 -142.88,-64 -142.88,-142.9" /></g><g
         transform="scale(2.0783)"
         id="g286"><path
           id="path288"
           style="fill:#ffffff;fill-opacity:1;fill-rule:nonzero;stroke:none"
           d="m 5553.19,16154.7 c 0,-80.2 65.06,-145.3 145.27,-145.3 80.25,0 145.31,65.1 145.31,145.3 0,80.3 -65.06,145.3 -145.31,145.3 -80.21,0 -145.27,-65 -145.27,-145.3" /></g><g
         transform="scale(2.04941)"
         id="g290"><path
           id="path292"
           style="fill:#ffffff;fill-opacity:1;fill-rule:nonzero;stroke:none"
           d="m 7920.92,16152.7 c 0,-81.4 -65.92,-147.4 -147.31,-147.4 -81.39,0 -147.31,66 -147.31,147.4 0,81.3 65.92,147.3 147.31,147.3 81.39,0 147.31,-66 147.31,-147.3" /></g><g
         transform="scale(2.02157)"
         id="g294"><path
           id="path296"
           style="fill:#ffffff;fill-opacity:1;fill-rule:nonzero;stroke:none"
           d="m 7897.2,16150.6 c 0,-82.4 -66.88,-149.3 -149.39,-149.3 -82.46,0 -149.34,66.9 -149.34,149.3 0,82.5 66.88,149.4 149.34,149.4 82.51,0 149.39,-66.9 149.39,-149.4" /></g><g
         transform="scale(1.90295)"
         id="g298"><path
           id="path300"
           style="fill:#efc2a3;fill-opacity:1;fill-rule:nonzero;stroke:none"
           d="m 8030.22,15739.2 c 0,0 95.27,-837.3 -96.96,-1059.6 -211.67,-244.7 -915.79,-224.5 -1150.74,10.4 -211.67,211.7 -81.24,1071.1 -81.24,1071.1 36.94,17.1 77.93,38.6 117.4,64.2 53.91,34.9 104.99,77.4 139.46,127.2 9.52,13.7 15.14,64 18.4,122.3 4.99,86.8 4.36,191.7 3.41,219.6 0,0.9 -0.16,1.9 -0.16,2.6 0,1.3 -0.15,2.2 -0.15,3 117.97,-101.9 246.56,-160.2 359.39,-160.2 121.44,0 252.5,58.9 369.84,160.2 0,-1.7 0.16,-4.4 0.16,-7.8 1.26,-33.2 6.2,-142.3 15.29,-227.2 5.1,-47.7 11.51,-87.6 19.29,-102.3 30.43,-57 75.3,-102.2 123.75,-137.4 55.66,-40.7 115.83,-68.4 162.86,-86.1" /></g><g
         transform="scale(1.86848)"
         id="g302"><path
           id="path304"
           style="fill:#ffffff;fill-opacity:1;fill-rule:nonzero;stroke:none"
           d="m 8312.71,15865.8 c 0,3.2 0,6.4 -0.26,9.7 0,5.3 0,10.6 -0.33,15.7 -0.26,10.4 -0.53,20 -0.53,29.3 -1.18,42.5 -2.36,76.1 -2.89,99.5 l -1.18,0.5 -0.27,0.3 -271.66,133.9 -134.5,133.5 -347.45,-427.7 -45.81,-50.4 -49.02,50.4 -374.85,439.5 -143.44,-153 -282.58,-129.4 -1.44,-0.8 c -0.59,-32.5 -2.63,-83.2 -3.48,-147.8 0,-10.6 -0.27,-21.9 0,-33.6 -0.27,-56.8 -0.27,-124 0.85,-199 3.16,-193.4 15.31,-437.4 47.31,-687.7 7.5,-58.9 15.85,-118.2 26.23,-176.5 22.21,-133.2 51.32,-264.7 87.98,-388.4 119.09,-399.9 242.77,-1401 745.75,-1401 506.99,0 475.3,988.3 593.26,1376.9 39.5,130.8 69.79,271.1 92,412.5 9.8,58.3 18.15,117.6 25.1,176.5 44.37,365.2 45.55,717.6 41.21,917.1" /></g><g
         transform="scale(1.52168)"
         id="g306"><path
           id="path308"
           style="fill:#efc2a3;fill-opacity:1;fill-rule:nonzero;stroke:none"
           d="m 7386.31,16119.5 c 473.09,-88.5 -232.51,-2509 -401.01,-3514.4 -78.14,190.8 -153.71,70.4 -144.71,310 13.21,344.4 -189.26,1730.9 -77.02,3237 11.04,147.9 622.74,-32.6 622.74,-32.6" /></g><g
         transform="scale(1.82001)"
         id="g310"><path
           id="path312"
           style="fill:#ffffff;fill-opacity:1;fill-rule:nonzero;stroke:none"
           d="m 6559.32,14596.3 c -54.34,-393 -95.39,-624.8 -208.85,-995.1 -19.56,-63.8 6.87,-242.5 -20.88,-308.1 l -726.26,184.3 c 1.54,97.7 111.43,212.3 114.07,293.3 15.11,461.8 -53.52,688.8 82.64,1484.4 115.32,673.5 237.3,780.7 321.15,861.6 79.45,76.5 325.27,182.5 344.28,183.3 67.2,-299.4 89.51,-494.7 135,-708.8 119.07,-199.5 -8.02,-755.3 -41.15,-994.9" /></g><g
         transform="scale(1.52833)"
         id="g314"><path
           id="path316"
           style="fill:#efc2a3;fill-opacity:1;fill-rule:nonzero;stroke:none"
           d="m 10865.3,16063.9 c -317.8,236.1 246.1,-2512.6 413.8,-3513.6 77.8,189.9 153.1,70.1 144.1,308.7 -13.1,342.9 188.5,1723.3 76.7,3222.9 -11,147.2 -634.6,-18 -634.6,-18" /></g><g
         transform="scale(1.82001)"
         id="g318"><path
           id="path320"
           style="fill:#ffffff;fill-opacity:1;fill-rule:nonzero;stroke:none"
           d="m 8787.11,14596.3 c 52.64,-380.7 135.55,-685.7 238.24,-1043 21.6,-75.2 -41.31,-182.7 -8.51,-260.2 l 723.46,155.1 c -1.38,89.2 -71.76,168.8 -74.07,243.7 -14.56,475.4 18.41,755.5 -119.83,1563.2 -115.33,673.5 -237.31,780.7 -321.16,861.6 -79.45,76.5 -325.27,182.5 -344.23,183.3 -67.25,-299.4 -89.56,-494.7 -135.05,-708.8 -119.07,-199.5 8.02,-755.3 41.15,-994.9" /></g><g
         transform="scale(1.8359)"
         id="g322"><path
           id="path324"
           style="fill:#d62b2b;fill-opacity:1;fill-rule:nonzero;stroke:none"
           d="m 8921.5,16175.3 -366.52,84.2 -142.93,32.9 c 83.01,-1773.2 -250.72,-1569.2 -755.21,-1571.3 -258.68,-1.1 -744.6,-59.6 -804.19,440.2 -43.79,368.6 -55.72,804.3 -41.01,1138.7 -45.76,-10.2 -79.47,-17.8 -138.95,-33.4 -69.94,-18.6 -175.28,-48.2 -377.2,-105.4 456.4,-2342 300.34,-2349.6 300.34,-2677.9 h 2047.23 c -26.86,406.5 -72.72,871.2 278.44,2692" /></g><g
         transform="scale(2.19397)"
         id="g326"><path
           id="path328"
           style="fill:#f0f0f0;fill-opacity:1;fill-rule:nonzero;stroke:none"
           d="m 7182.82,15915.7 c -121.2,176.4 -460.94,380.6 -831.73,384.3 h -3.88 c -418.37,-11.9 -731.46,-281 -830.36,-469.7 C 5203.62,15233 5680.11,14545 5680.11,14545 l 669.02,75.5 669.06,-75.5 c 0,0 563.13,790.4 164.63,1370.7" /></g><g
         transform="scale(1.97415)"
         id="g330"><path
           id="path332"
           style="fill:#bd9868;fill-opacity:1;fill-rule:nonzero;stroke:none"
           d="m 6724.93,15495.1 c -3.14,-56.2 -8.56,-104.7 -17.73,-118 -102.01,-147.6 -356.81,-229.1 -372.56,-233.8 -0.46,-0.2 -0.76,-0.3 -0.76,-0.3 l -1.37,-0.7 c -31.81,-5.5 -68.03,-14.4 -68.03,-14.4 -1.37,5.1 -2.58,9.5 -3.14,14.4 -95.13,427.3 20.57,1116.5 28.67,1157.7 35.76,-68.1 48.22,-101.3 89.56,-100.7 4.35,0 8.1,0.6 12.46,2 6.28,1.8 11.24,4.4 16.21,8.7 13.22,-44.5 29.43,-87 47.61,-128.3 67.48,-150.7 165.14,-278.2 272.07,-369.5 0,-0.8 0.15,-1.7 0.15,-2.9 1.07,-22.4 1.83,-127.5 -3.14,-214.2" /></g><g
         transform="scale(1.97415)"
         id="g334"><path
           id="path336"
           style="fill:#bd9868;fill-opacity:1;fill-rule:nonzero;stroke:none"
           d="m 7929.91,15127.9 c 0,0 -4.96,0.8 -13.07,2 l -13.83,2.5 c -25.53,3.8 -62.51,9.3 -78.72,13.1 l -1.21,0.6 c 0,0 -260.32,55.7 -358.74,241 -7.5,14.1 -13.68,52.5 -18.59,98.5 -8.76,81.9 -13.52,187 -14.74,219 0,3.3 -0.15,5.9 -0.15,7.6 102.62,88.7 193.96,210.7 259,354.6 19.95,43.2 36.77,88.8 50.6,135.7 0.61,-0.6 1.82,-1.2 3.19,-1.2 10.64,-3.2 21.78,-2 33.79,1.8 33.63,13.2 60.53,35 80.69,96.9 2.99,-18 119.4,-752.9 71.78,-1172.1" /></g><g
         transform="scale(1.90204)"
         id="g338"><path
           id="path340"
           style="fill:#936852;fill-opacity:1;fill-rule:nonzero;stroke:none"
           d="m 7728.02,16072.7 c 0,0 -14.51,185.2 -15.3,227.3 1.26,-33.2 6.2,-142.4 15.3,-227.3" /></g><g
         transform="scale(1.48154)"
         id="g342"><path
           id="path344"
           style="fill:#d62b2b;fill-opacity:1;fill-rule:nonzero;stroke:none"
           d="m 12931.3,2909.74 c -2056.9,-515.2 -4947.78,-418.68 -6945.64,0 C 7592.71,16058.5 7390.35,15140.2 8097.59,16300 H 10792 c 626.7,-918.8 438.5,-453.4 2139.3,-13390.26" /></g><g
         transform="scale(1.205)"
         id="g346"><path
           id="path348"
           style="fill:#efc2a3;fill-opacity:1;fill-rule:nonzero;stroke:none"
           d="m 8894.52,16298.8 c -67.55,-507.5 -142.65,-1145.4 -224.65,-1767.7 -88.13,75 -174.19,303.8 -174.19,303.8 0,0 -76.84,381.9 -94.27,552.3 -17.43,170.5 236.6,912.8 236.6,912.8 l 256.51,-1.2" /></g><g
         transform="scale(1.20534)"
         id="g350"><path
           id="path352"
           style="fill:#efc2a3;fill-opacity:1;fill-rule:nonzero;stroke:none"
           d="m 14245.7,16233.8 c 67.6,-507.3 143.4,-1084.7 225.4,-1706.8 88.1,74.9 174.1,303.7 174.1,303.7 0,0 76.8,381.7 94.2,552.1 17.5,170.4 -255.1,917.2 -255.1,917.2 l -238.6,-66.2" /></g><g
         transform="scale(1.51866)"
         id="g354"><path
           id="path356"
           style="fill:#e4e4e4;fill-opacity:1;fill-rule:nonzero;stroke:none"
           d="M 10528.1,15901.6 H 7899.58 c -7.31,22 74.01,398.4 74.01,398.4 h 2474.91 l 79.6,-398.4" /></g><path
         id="path358"
         style="fill:#333333;fill-opacity:1;fill-rule:nonzero;stroke:none"
         d="m 14053.9,3461.4 c 0,-229.7 -40.8,-398.9 -40.8,-398.9 -196.3,-225.9 -771.7,-216 -771.7,-216 0,0 -576.6,61.7 -638.3,298.8 -61.8,237 154.3,688.9 154.3,688.9 0,0 185.2,-211.1 540.8,-230.8 263,-14.9 529.7,119.7 649.5,190.1 24.7,0 49.4,-1.2 74.1,-1.2 24.6,-114.9 32.1,-229.7 32.1,-330.9" /><path
         id="path360"
         style="fill:#efc2a3;fill-opacity:1;fill-rule:nonzero;stroke:none"
         d="m 13947.7,3793.5 c -119.8,-70.4 -386.5,-205 -649.5,-190.1 -355.6,19.7 -540.8,230.8 -540.8,230.8 h 69.1 c 360.6,-19.7 734.7,-34.5 1121.2,-40.7" /><path
         id="path362"
         style="fill:#333333;fill-opacity:1;fill-rule:nonzero;stroke:none"
         d="m 15504.7,3145.3 c -61.8,-237.1 -638.4,-298.8 -638.4,-298.8 0,0 -575.4,-9.9 -771.7,216 0,0 -40.7,169.2 -40.7,398.9 0,101.2 7.4,214.8 32.1,329.6 h 79 c 122.2,-71.6 385.2,-202.5 644.5,-187.6 276.6,14.8 449.5,145.7 512.4,202.5 13.6,0 27.2,1.2 40.8,2.4 43.2,-98.8 195,-459.3 142,-663" /><path
         id="path364"
         style="fill:#efc2a3;fill-opacity:1;fill-rule:nonzero;stroke:none"
         d="m 15321.9,3805.9 c -62.9,-56.8 -235.8,-187.7 -512.4,-202.5 -259.3,-14.9 -522.3,116 -644.5,187.6 377.8,-3.7 764.3,0 1156.9,14.9" /><g
         transform="scale(2.10391)"
         id="g366"><path
           id="path368"
           style="fill:#f7cbad;fill-opacity:1;fill-rule:nonzero;stroke:none"
           d="m 7305.86,15493.1 c 0,-101.6 -15.26,-199 -42.83,-290 -12.88,-44 -28.75,-86.8 -47.53,-127.3 -61.03,-135 -146.72,-249.4 -242.97,-332.8 -106.23,-91.5 -224.78,-144.9 -334.52,-144.9 -102.1,0 -218.31,52.8 -325.11,144.9 -100.34,85.7 -191.93,205.4 -255.29,346.9 -17.01,38.7 -32.27,78.6 -44.63,120.3 -27.57,88.6 -42.82,183.7 -42.82,282.9 v 28.7 c 0,31.1 1.18,61.6 3.51,91.6 33.47,428.4 304.58,670.2 630.3,686 11.17,0.6 22.92,0.6 34.04,0.6 11.17,0 22.29,0 33.46,-0.6 324.54,-17 596.27,-275.8 630.3,-681.3 2.33,-27.6 3.52,-56.4 3.52,-85.7 0.57,-12.9 0.57,-25.8 0.57,-39.3" /></g><g
         transform="scale(2.00763)"
         id="g370"><path
           id="path372"
           style="fill:#efc2a3;fill-opacity:1;fill-rule:nonzero;stroke:none"
           d="m 6301.55,15939.6 c -4.93,-4.3 -9.81,-6.8 -15.98,-8.6 -4.29,-1.2 -7.97,-1.9 -12.31,-1.9 -40.59,-0.6 -52.9,32 -87.96,99.1 -6.13,11 -12.9,23.3 -20.28,36.2 -31.97,56.6 -35.66,146.4 -20.92,185.2 9.22,23.3 23.36,39.3 41.85,44.3 22.11,6.1 47.36,-5 70.73,-27.7 v -30.2 c 0,-103.9 15.98,-203.5 44.87,-296.4" /></g><g
         transform="scale(2.00748)"
         id="g374"><path
           id="path376"
           style="fill:#efc2a3;fill-opacity:1;fill-rule:nonzero;stroke:none"
           d="m 7742.49,16084.1 c -4.28,-20.9 -9.22,-38.7 -14.75,-54.1 0,0 0,0 0,-0.6 -19.67,-60.9 -46.12,-82.5 -79.35,-95.4 -11.65,-3.7 -22.76,-4.9 -33.22,-1.8 -1.2,0 -2.44,0.6 -3.04,1.2 28.89,95.4 44.88,197.5 44.88,303.9 0,14.1 0,27.6 -0.6,41.2 19.68,15.3 39.95,21.5 58.43,16.6 25.21,-6.8 41.8,-33.2 48.57,-71.4 7.37,-36.9 -10.46,-89.2 -20.92,-139.6" /></g><g
         transform="scale(2.01922)"
         id="g378"><path
           id="path380"
           style="fill:#936852;fill-opacity:1;fill-rule:nonzero;stroke:none"
           d="m 6618.74,16202.2 c 0,-53.9 -35.46,-97.9 -78.89,-97.9 -43.44,0 -78.9,44 -78.9,97.9 0,54.4 35.46,97.8 78.9,97.8 43.43,0 78.89,-43.4 78.89,-97.8" /></g><g
         transform="scale(1.98104)"
         id="g382"><path
           id="path384"
           style="fill:#eab0ad;fill-opacity:1;fill-rule:nonzero;stroke:none"
           d="m 6699.65,16210.2 c 0,-49.2 -52.35,-89.1 -117.16,-89.1 -64.21,0 -116.61,39.9 -116.61,89.1 0,49.9 52.4,89.8 116.61,89.8 64.81,0 117.16,-39.9 117.16,-89.8" /></g><g
         transform="scale(1.98104)"
         id="g386"><path
           id="path388"
           style="fill:#eab0ad;fill-opacity:1;fill-rule:nonzero;stroke:none"
           d="m 7653.24,16210.2 c 0,-49.2 -52.35,-89.1 -117.16,-89.1 -64.21,0 -116.56,39.9 -116.56,89.1 0,49.9 52.35,89.8 116.56,89.8 64.81,0 117.16,-39.9 117.16,-89.8" /></g><g
         transform="scale(2.01922)"
         id="g390"><path
           id="path392"
           style="fill:#936852;fill-opacity:1;fill-rule:nonzero;stroke:none"
           d="m 7340.4,16202.2 c 0,-53.9 -35.51,-97.9 -78.89,-97.9 -43.43,0 -78.89,44 -78.89,97.9 0,54.4 35.46,97.8 78.89,97.8 43.38,0 78.89,-43.4 78.89,-97.8" /></g><g
         transform="scale(2.04746)"
         id="g394"><path
           id="path396"
           style="fill:#bc9669;fill-opacity:1;fill-rule:nonzero;stroke:none"
           d="m 6578.35,16141.7 c -132.12,90.5 -242.01,29.3 -247.04,26.3 -46.64,-27.7 -32.48,-1.4 -24.57,10.5 1.22,1.7 129.58,121.5 310.05,-4.3 11.57,-8 26.13,-30.4 14.94,-37.8 -15.09,-10 -38.24,-5.1 -53.38,5.3" /></g><g
         transform="scale(2.04746)"
         id="g398"><path
           id="path400"
           style="fill:#bc9669;fill-opacity:1;fill-rule:nonzero;stroke:none"
           d="m 7038.72,16141.7 c 132.12,90.5 241.96,29.3 247.04,26.3 46.59,-27.7 32.48,-1.4 24.52,10.5 -1.17,1.7 -129.53,121.5 -309.99,-4.3 -11.58,-8 -26.13,-30.4 -14.95,-37.8 15.09,-10 38.24,-5.1 53.38,5.3" /></g><g
         transform="scale(2.00816)"
         id="g402"><path
           id="path404"
           style="fill:#e5b798;fill-opacity:1;fill-rule:nonzero;stroke:none"
           d="m 6952.13,15895.9 c -4.83,0 -10.01,0.3 -15.54,0.9 -4.18,0.5 -7.17,4.4 -6.72,8.6 0.5,4.2 4.13,7.6 8.52,6.7 29.58,-3.4 52.53,4.1 65.18,21.1 10.51,14.2 12.3,34.1 4.53,51.7 -3.63,8.2 -7.57,16.7 -11.55,25.4 -31.97,69.1 -71.71,155 -39.94,283 1,4.1 4.83,6.7 9.31,5.6 4.09,-1 6.58,-5.1 5.58,-9.3 -30.48,-122.7 8.02,-205.9 38.94,-272.8 4.09,-8.8 8.07,-17.4 11.71,-25.7 10,-22.7 7.56,-48.3 -6.23,-67.1 -8.22,-11 -26.84,-28.1 -63.79,-28.1" /></g><g
         transform="scale(1.93389)"
         id="g406"><path
           id="path408"
           style="fill:#e61e1e;fill-opacity:1;fill-rule:nonzero;stroke:none"
           d="m 7067.86,16229.5 c -21.61,22.1 -36.97,52.6 -36.97,52.6 0,0 40.75,10.5 72.55,12.5 57.3,3.6 76.58,-7.1 123.17,-8.1 46.08,-1 64.33,13.5 129.95,4.4 29.32,-4.1 65.77,-8.7 65.77,-8.7 0,0 -16.08,-32.1 -41.16,-58.2 -30.4,-31.5 -69.08,-72.6 -147.01,-75.1 -81.34,-2.6 -132.63,46.3 -166.3,80.6" /></g><g
         transform="scale(1.48155)"
         id="g410"><path
           id="path412"
           style="fill:#ffffff;fill-opacity:1;fill-rule:nonzero;stroke:none"
           d="m 12281.5,3659.15 c -1658.3,-486.38 -3989.01,-395.26 -5599.76,0 C 7977.41,16072.1 7814.2,15205.1 8384.42,16300 h 2172.28 c 505.3,-867.3 353.5,-428 1724.8,-12640.85" /></g><g
         transform="scale(2.15057)"
         id="g414"><path
           id="path416"
           style="fill:#bd9868;fill-opacity:1;fill-rule:nonzero;stroke:none"
           d="m 6494.18,16300 c -416.82,0 -842.48,-336.1 -785.98,-955.9 4.56,-59.8 13.76,-118.3 27.53,-174.6 8.6,21.8 21.81,36.8 39.06,41.4 20.64,5.7 44.22,-4.6 66.03,-25.9 0,30.5 2.32,87.8 3.44,89.6 94.95,157 256.81,210.3 386.87,363.1 117.83,138.5 252.12,308.6 263.05,308.6 10.88,0 80.53,-146.6 152.42,-228.8 219.8,-251.1 449.18,-282.1 496.94,-438.3 0.46,-1.7 3.44,-55.1 3.44,-83.8 18.37,14.3 37.29,20.1 54.54,15.5 23.53,-6.4 39.02,-31 45.34,-66.6 13.81,51.6 24.13,105.6 29.85,160.1 v 1.2 c 4.05,38.5 6.33,77.5 6.33,117.1 0,585.1 -353.12,877.3 -788.86,877.3" /></g><g
         transform="scale(1.68158)"
         id="g418"><path
           id="path420"
           style="fill:#ad8c5c;fill-opacity:1;fill-rule:nonzero;stroke:none"
           d="m 8806.46,14720.7 h -984.37 l -254.52,1577.2 c 0,0 381.43,-224.7 765.41,-226.1 388.68,-1.5 737.76,228.2 737.76,228.2 l -264.28,-1579.3" /></g><g
         transform="scale(1.53776)"
         id="g422"><path
           id="path424"
           style="fill:#333333;fill-opacity:1;fill-rule:nonzero;stroke:none"
           d="m 9349.9,16228.3 c 0,-39.7 -32.13,-71.8 -71.73,-71.8 -39.61,0 -71.73,32.1 -71.73,71.8 0,39.6 32.12,71.7 71.73,71.7 39.6,0 71.73,-32.1 71.73,-71.7" /></g><g
         transform="scale(1.5676)"
         id="g426"><path
           id="path428"
           style="fill:#333333;fill-opacity:1;fill-rule:nonzero;stroke:none"
           d="m 9285.88,16229.6 c 0,-38.8 -31.51,-70.3 -70.43,-70.3 -38.85,0 -70.36,31.5 -70.36,70.3 0,38.9 31.51,70.4 70.36,70.4 38.92,0 70.43,-31.5 70.43,-70.4" /></g><g
         transform="scale(1.59638)"
         id="g430"><path
           id="path432"
           style="fill:#333333;fill-opacity:1;fill-rule:nonzero;stroke:none"
           d="m 9221.99,16230.9 c 0,-38.2 -30.95,-69.1 -69.1,-69.1 -38.14,0 -69.09,30.9 -69.09,69.1 0,38.2 30.95,69.1 69.09,69.1 38.15,0 69.1,-30.9 69.1,-69.1" /></g><g
         transform="scale(1.62517)"
         id="g434"><path
           id="path436"
           style="fill:#333333;fill-opacity:1;fill-rule:nonzero;stroke:none"
           d="m 9156.91,16232.1 c 0,-37.5 -30.39,-67.9 -67.87,-67.9 -37.47,0 -67.87,30.4 -67.87,67.9 0,37.5 30.4,67.9 67.87,67.9 37.48,0 67.87,-30.4 67.87,-67.9" /></g><g
         transform="scale(1.65352)"
         id="g438"><path
           id="path440"
           style="fill:#333333;fill-opacity:1;fill-rule:nonzero;stroke:none"
           d="m 9115.85,16233.3 c 0,-36.8 -29.87,-66.7 -66.7,-66.7 -36.84,0 -66.71,29.9 -66.71,66.7 0,36.8 29.87,66.7 66.71,66.7 36.83,0 66.7,-29.9 66.7,-66.7" /></g><g
         transform="scale(1.53704)"
         id="g442"><path
           id="path444"
           style="fill:#333333;fill-opacity:1;fill-rule:nonzero;stroke:none"
           d="m 8964.39,16228.2 c 0,-39.6 -32.14,-71.8 -71.76,-71.8 -39.62,0 -71.76,32.2 -71.76,71.8 0,39.7 32.14,71.8 71.76,71.8 39.62,0 71.76,-32.1 71.76,-71.8" /></g><g
         transform="scale(1.56705)"
         id="g446"><path
           id="path448"
           style="fill:#333333;fill-opacity:1;fill-rule:nonzero;stroke:none"
           d="m 8699.98,16229.5 c 0,-38.8 -31.52,-70.3 -70.39,-70.3 -38.86,0 -70.38,31.5 -70.38,70.3 0,39 31.52,70.5 70.38,70.5 38.87,0 70.39,-31.5 70.39,-70.5" /></g><g
         transform="scale(1.59593)"
         id="g450"><path
           id="path452"
           style="fill:#333333;fill-opacity:1;fill-rule:nonzero;stroke:none"
           d="m 8452.39,16230.9 c 0,-38.2 -30.89,-69.2 -69.11,-69.2 -38.16,0 -69.11,31 -69.11,69.2 0,38.1 30.95,69.1 69.11,69.1 38.22,0 69.11,-31 69.11,-69.1" /></g><g
         transform="scale(1.62371)"
         id="g454"><path
           id="path456"
           style="fill:#333333;fill-opacity:1;fill-rule:nonzero;stroke:none"
           d="m 8233.76,16232.1 c 0,-37.5 -30.43,-68 -67.93,-68 -37.57,0 -68,30.5 -68,68 0,37.5 30.43,67.9 68,67.9 37.5,0 67.93,-30.4 67.93,-67.9" /></g><g
         transform="scale(1.65423)"
         id="g458"><path
           id="path460"
           style="fill:#333333;fill-opacity:1;fill-rule:nonzero;stroke:none"
           d="m 7986.36,16233.3 c 0,-36.9 -29.8,-66.7 -66.68,-66.7 -36.81,0 -66.68,29.8 -66.68,66.7 0,36.8 29.87,66.7 66.68,66.7 36.88,0 66.68,-29.9 66.68,-66.7" /></g><g
         transform="scale(1.64755)"
         id="g462"><path
           id="path464"
           style="fill:#ffca5e;fill-opacity:1;fill-rule:nonzero;stroke:none"
           d="M 9073.88,16284.1 H 7961.14 c -9.83,0 -17.84,3.6 -17.84,7.9 0,4.4 8.01,8 17.84,8 h 1112.74 c 9.84,0 17.85,-3.6 17.85,-8 0,-4.3 -8.01,-7.9 -17.85,-7.9" /></g><g
         transform="scale(1.64756)"
         id="g466"><path
           id="path468"
           style="fill:#ffca5e;fill-opacity:1;fill-rule:nonzero;stroke:none"
           d="m 8051.73,15989.1 c -5.22,0 -10.32,1.1 -13.29,3.2 -4.79,3.3 -2.73,7.7 4.62,9.8 l 1022.17,295.8 c 7.59,2.1 17.24,1.3 21.97,-2.1 4.86,-3.2 2.74,-7.6 -4.61,-9.8 l -1022.18,-295.8 c -2.73,-0.7 -5.7,-1.1 -8.68,-1.1" /></g><g
         transform="scale(1.64758)"
         id="g470"><path
           id="path472"
           style="fill:#ffca5e;fill-opacity:1;fill-rule:nonzero;stroke:none"
           d="m 8969.72,16004.6 c -2.85,0 -5.83,0.3 -8.44,1.1 l -1008.63,280.1 c -7.47,2.1 -9.65,6.4 -5.1,9.7 4.74,3.3 14.39,4.5 21.97,2.3 l 1008.64,-280.2 c 7.46,-2 9.71,-6.3 5.1,-9.7 -3.1,-2.2 -8.2,-3.3 -13.54,-3.3" /></g><g
         transform="scale(1.61923)"
         id="g474"><path
           id="path476"
           style="fill:#ffca5e;fill-opacity:1;fill-rule:nonzero;stroke:none"
           d="m 8278.8,15987.4 c -4.82,0 -9.45,1 -12.79,2.8 -5.37,3.1 -4.26,7.6 2.78,10.1 l 847.99,297.3 c 6.8,2.4 17.05,2 22.73,-1.2 5.44,-3.1 4.26,-7.7 -2.78,-10.1 L 8288.74,15989 c -2.9,-1.1 -6.42,-1.6 -9.94,-1.6" /></g><g
         transform="scale(1.61766)"
         id="g478"><path
           id="path480"
           style="fill:#ffca5e;fill-opacity:1;fill-rule:nonzero;stroke:none"
           d="m 9028.71,16012.8 c -3.28,0 -6.68,0.4 -9.58,1.4 l -828.18,271.8 c -7.23,2.4 -8.71,6.8 -3.46,10 5.32,3.3 15.33,4 22.63,1.6 l 828.23,-271.8 c 7.17,-2.4 8.72,-6.9 3.4,-10.1 -3.15,-1.9 -8.1,-2.9 -13.04,-2.9" /></g><g
         transform="scale(1.59066)"
         id="g482"><path
           id="path484"
           style="fill:#ffca5e;fill-opacity:1;fill-rule:nonzero;stroke:none"
           d="m 8517.99,15979.7 c -4.15,0 -8.23,0.7 -11.44,2.1 -6.54,2.8 -6.66,7.4 -0.37,10.3 l 664,304.9 c 6.41,2.9 16.84,3 23.26,0.2 6.54,-2.8 6.66,-7.4 0.37,-10.3 l -664,-305 c -3.2,-1.5 -7.61,-2.2 -11.82,-2.2" /></g><g
         transform="scale(1.58968)"
         id="g486"><path
           id="path488"
           style="fill:#ffca5e;fill-opacity:1;fill-rule:nonzero;stroke:none"
           d="m 9077.73,15998.5 c -4.27,0 -8.36,0.7 -11.57,2.1 l -645.04,286.2 c -6.41,2.8 -6.54,7.5 -0.12,10.4 6.41,2.8 16.86,2.8 23.27,0 l 645.04,-286.2 c 6.41,-2.8 6.54,-7.5 0.12,-10.4 -3.21,-1.4 -7.48,-2.1 -11.7,-2.1" /></g><g
         transform="scale(1.56093)"
         id="g490"><path
           id="path492"
           style="fill:#ffca5e;fill-opacity:1;fill-rule:nonzero;stroke:none"
           d="m 9131.31,15987.4 c -5.38,0 -10.64,1.1 -13.9,3.3 l -451.08,296.6 c -5.26,3.4 -3.14,8.1 4.48,10.4 7.56,2.3 18.07,1.5 23.26,-2 l 451.08,-296.6 c 5.25,-3.4 3.14,-8.1 -4.42,-10.4 -2.89,-0.9 -6.16,-1.3 -9.42,-1.3" /></g><g
         transform="scale(1.5618)"
         id="g494"><path
           id="path496"
           style="fill:#ffca5e;fill-opacity:1;fill-rule:nonzero;stroke:none"
           d="m 8768.42,15970.9 c -3.26,0 -6.4,0.4 -9.28,1.3 -7.75,2.3 -9.8,6.9 -4.61,10.3 l 471.38,313.3 c 5.12,3.4 15.56,4.2 23.18,2 7.74,-2.3 9.79,-6.9 4.54,-10.4 l -471.31,-313.2 c -3.14,-2.1 -8.52,-3.3 -13.9,-3.3" /></g><g
         transform="scale(1.86996)"
         id="g498"><path
           id="path500"
           style="fill:#f0f0f0;fill-opacity:1;fill-rule:nonzero;stroke:none"
           d="m 7479.74,16018.9 c 0,0 -20,-619 -313.64,-680.3 -293.64,-61.2 -509,125.9 -602.31,302 -42.09,79.3 -148.72,327.1 -148.72,327.1 0,0 186.47,70.3 375.67,153.6 172.95,76.1 300.01,178.7 300.01,178.7 l 388.99,-281.1" /></g><g
         transform="scale(1.86996)"
         id="g502"><path
           id="path504"
           style="fill:#f0f0f0;fill-opacity:1;fill-rule:nonzero;stroke:none"
           d="m 7475.25,16018.9 c 0,0 20,-619 313.65,-680.3 293.64,-61.2 508.99,125.9 602.31,302 42.09,79.3 148.77,327.1 148.77,327.1 0,0 -186.53,70.3 -375.73,153.6 -172.94,76.1 -300,178.7 -300,178.7 l -389,-281.1" /></g><g
         transform="scale(1.83219)"
         id="g506"><path
           id="path508"
           style="fill:#f2ac2f;fill-opacity:1;fill-rule:nonzero;stroke:none"
           d="m 7760.87,16173 c 0,-70.1 -56.81,-126.9 -126.95,-126.9 -70.13,0 -126.95,56.8 -126.95,126.9 0,70.2 56.82,127 126.95,127 70.14,0 126.95,-56.8 126.95,-127" /></g><g
         transform="scale(1.82609)"
         id="g510"><path
           id="path512"
           style="fill:#ffca5e;fill-opacity:1;fill-rule:nonzero;stroke:none"
           d="m 7732.33,16227.1 c 0,-40.3 -32.64,-72.9 -72.89,-72.9 -40.3,0 -72.94,32.6 -72.94,72.9 0,40.3 32.64,72.9 72.94,72.9 40.25,0 72.89,-32.6 72.89,-72.9" /></g><g
         transform="scale(2.36366)"
         id="g514"><path
           id="path516"
           style="fill:#e61e1e;fill-opacity:1;fill-rule:nonzero;stroke:none"
           d="M 3081.95,14587.9 H 580.249 V 16300 H 3081.95 v -1712.1" /></g><g
         transform="scale(2.26358)"
         id="g518"><path
           id="path520"
           style="fill:#ffffff;fill-opacity:1;fill-rule:nonzero;stroke:none"
           d="M 2631.92,15959.1 H 1194.25 v 340.9 h 1437.67 v -340.9" /></g><g
         transform="scale(2.33973)"
         id="g522"><path
           id="path524"
           style="fill:#ffffff;fill-opacity:1;fill-rule:nonzero;stroke:none"
           d="M 2015.72,16300 V 14909.1 H 1685.91 V 16300 h 329.81" /></g></g></g></svg>