<svg viewBox="0 0 1541.08 2815.81" xmlns="http://www.w3.org/2000/svg"><g transform="translate(-2610.84 -379.53)"><path d="m3906.07 1293.24-73.59 535.57-55.19 402-21.82 158.83h-753.26l-28.72-197.64-49.28-340.21-80.95-558 262-109.26 67.18-23.57 31.29-55.06 33.71 18.66 12.4 6.85 81.25 50.94 50.08 59.94 59.81 6.92-8.15-69.23 88.17-55.06 11.29-7.11 22.31-14 30.57 60.46 320.93 129" fill="#fff"/><path d="m3674 1721.59c0 41.5-138.11 75.16-308.45 75.16s-308.46-33.66-308.46-75.16 138.09-75.16 308.46-75.16 308.45 33.65 308.45 75.16" fill="#d0ae78"/><path d="m3582.77 1721.58c0 29.25-97.26 53-217.23 53s-217.2-23.7-217.2-53 97.24-52.92 217.2-52.92 217.23 23.7 217.23 52.92" fill="#ad8c5c"/><path d="m3438.33 1276.72c0 19-26.16 34.48-58.43 34.48s-58.46-15.43-58.46-34.48 26.18-34.51 58.46-34.51 58.43 15.46 58.43 34.51" fill="#f2ac2f"/><path d="m3423.26 1275.48c0 14.16-19.41 25.61-43.36 25.61s-43.39-11.45-43.39-25.61 19.44-25.6 43.39-25.6 43.36 11.47 43.36 25.6" fill="#ffca5e"/><path d="m3616.43 680.81h-2.07c-.06-156.07-105.85-225.81-235.36-225.81s-232.34 62.91-232.34 226.8c0 170.35 105.47 377 235.12 377s232.58-207.48 232.58-377.8v-.06l2.07-.09" fill="#936852"/><path d="m3596.46 839.23c-5.36 9.71-2.08 19.6-11.09 33.61-10.92 16.81-22.18 22.74-27 23.24.16-2.8.36-5.78.53-8.73 0-1.15.17-2.47.17-3.62 1.54-27.37 1.91-63 1.91-87.71v-12.52l.33-18.62c6.6-6 20.47-7.91 26.7-6.26a21 21 0 0 1 8 4 16.17 16.17 0 0 1 5.99 7.38c4.16 10.06 5.2 50-5.56 69.24" fill="#efc2a3"/><path d="m3204.3 896.08c-1.38 1.15-16.54-6.43-27.38-23.24-9-14-5.67-23.9-11.2-33.61-10.5-19.29-9.46-59.18-5.33-69.24 2.58-6.09 8.79-10 14-11.37 6.21-1.65 18.78.48 25.33 6.43l.5 11.21v3.11c.17 2 .17 4 .17 6.12 0 28.33-.34 80.44 4 110.59" fill="#efc2a3"/><path d="m2811.64 3003.07c-9.34 36.09-12 71 11.76 178.65 8.6 38.87-94.78-11.68-111.05-73.12-6.88-26.41-14.91-84.61-13.44-116.35 1.56-33.42 36.67-145.64 36.67-145.64 28 11.89 72.75 24 106.22 23.19l.51.16 4.81 42.5s9.42 91 18.9 141.66c10.22 55.3-45.18 42.25-54.38-51" fill="#efc2a3"/><path d="m2867 2860.18c-8.08 7.37-21.76 10.05-38.24 9.55-33.45-.85-77.63-15.26-105-28.67-13.18-6.38-22.26-12.58-24.57-16.93-9.22-17.78 20.11-114.68 20.11-114.68l90.17 8.9 70.7 7s15.33 108.65-13.18 134.8" fill="#fff" opacity=".4" stroke="#000" stroke-miterlimit="10" stroke-width="3"/><path d="m2880.22 2727.82-70.71-6.93c-.48-.5-.83-.83-.83-.83l-89.32-7.91c-44.84-53.88-70.38-86.53-98.25-210.32-27.67-123.79 15.67-485.4 13.36-764s97.1-421.3 118.67-459.39 95.61 0 95.61 0 4.45-.48 11.71-.65l78.62 541.47c-7.59 52.73-13.51 139.28 3.11 242.29 27.7 171.42-41.18 620.89-62 666.24" fill="#fff" opacity=".4" stroke="#000" stroke-miterlimit="10" stroke-width="2"/><path d="m4053.78 3107.15c-16.1 61.49-119.34 112.34-110.84 73.44 23.42-107.68 20.69-142.61 11.25-178.67-9 93.32-64.29 106.52-54.26 51.2 9.37-50.73 18.52-141.72 18.52-141.72l4.7-42.53.5-.14c33.46.67 78.22-11.54 106.14-23.49 0 0 35.44 112.12 37.1 145.52 1.55 31.75-6.32 90-13.11 116.39" fill="#efc2a3"/><path d="m4063.54 2824.31c-2.32 4.35-11.37 10.52-24.56 16.86-27.36 13.36-71.54 27.72-105 28.55-16.46.51-30.16-2.17-38.23-9.51-28.51-26.05-13.19-134.22-13.19-134.22l70.74-7 90.15-8.84s29.33 96.49 20.11 114.18" fill="#fff" opacity=".4" stroke="#000" stroke-miterlimit="10" stroke-width="2"/><path d="m4141.64 2501.84c-27.85 123.77-53.38 156.41-98.22 210.31l-89.35 7.9s-.3.33-.82.84l-70.7 6.94c-20.79-45.36-89.67-494.83-62-666.26 19.26-119 8.23-216.24-.34-264.53l71.37-519.71c13.53.33 22.41 1.15 22.41 1.15s74.17-38.09 95.61 0 121 180.82 118.69 459.37 41 640.19 13.32 764" fill="#fff" opacity=".4" stroke="#000" stroke-miterlimit="10" stroke-width="2"/><path d="m3446.41 794.53c0-14.66 9.56-26.37 21.28-26.37s21.31 11.71 21.31 26.37-9.56 26.37-21.27 26.37-21.32-11.9-21.32-26.37zm-152.41 26.37c-11.72 0-21.28-11.86-21.28-26.37s9.56-26.37 21.28-26.37 21.41 11.71 21.41 26.37-9.59 26.37-21.41 26.37zm100.79-157.15c-104.67 0-137.69-80.19-167.29-27.1-7.34 13.17-31.73 92.37-29.11 139.61v3.12c.14 2 .14 4 .14 6.09.67 38.75 1.66 88.35 3.65 108.31 0 .81.17 1.48.17 2.3 2.16 22.58 4.11 55.37 10.37 69.56 10.87 24.71 22.59 37.91 37.27 49.27 9 7.08 19.09 13.35 30.81 21.27 35.11 23.9 70.72 30.34 99.39 30.34 30.83 0 77-12.39 99.54-29.52 9.09-6.91 19-14 28.53-21.91v-.18c17.48-14.51 34.3-32.14 44.18-57.34 4.95-12.71 7.43-45.17 8.24-61.49.15-2.8.32-5.77.5-8.74 0-1.17.14-2.48.14-3.61.67-19 1.34-55.08 1.84-87.72v-12.53l.32-18.62c.32-19.93-18.21-67.37-28.88-94.26-26.84-67.75-56.33-6.85-139.81-6.85" fill="#f7cbad"/><path d="m3315.38 794.54c0 14.51-9.55 26.36-21.43 26.36-11.7 0-21.25-11.85-21.25-26.36 0-14.67 9.55-26.38 21.25-26.38 11.88 0 21.43 11.71 21.43 26.38" fill="#775546"/><path d="m3488.94 794.54c0 14.51-9.55 26.36-21.26 26.36s-21.25-11.85-21.25-26.36c0-14.67 9.55-26.38 21.25-26.38s21.26 11.71 21.26 26.38" fill="#775546"/><path d="m3506.18 1015.08v-.16h4.11z" fill="#8cc63f"/><path d="m3329 747.39c-29-14.64-66.81-12.42-77.68-9-14.13 4.44-13.79-3.36-11.62-6.6.34-.45 50.66-32.89 100 1.48 3.16 2.22 3 10.49 0 12.51-4.12 2.7-6.17 3.84-10.66 1.59" fill="#936852"/><path d="m3432.19 749.19c26.91-14.06 61-11.14 70.73-7.5 12.59 4.72 12.65-3.07 10.83-6.36-.29-.46-44.33-33.76-90.56-.4-3 2.13-3.24 10.4-.57 12.47 3.61 2.79 5.43 4 9.57 1.79" fill="#936852"/><path d="m3386.1 908.32a40.72 40.72 0 0 1 -5-.31 2.46 2.46 0 0 1 -2.15-2.74 2.34 2.34 0 0 1 2.74-2.15c9.5 1.06 16.9-1.32 21-6.82a16.74 16.74 0 0 0 1.48-16.63c-1.18-2.65-2.46-5.36-3.75-8.16-10.28-22.24-23.05-49.91-12.82-91.07a2.4 2.4 0 0 1 3-1.82 2.48 2.48 0 0 1 1.81 3c-9.8 39.49 2.58 66.26 12.52 87.78 1.35 2.85 2.6 5.59 3.78 8.27a21.58 21.58 0 0 1 -2 21.57c-2.62 3.55-8.6 9.06-20.51 9.06" fill="#e5b798"/><path d="m3335.29 976.28c-13.71-6.13-21.54-25-21.54-25s14.68 3 26.13 2.6c20.62-.64 27.56 3.1 44.34 3.28 16.58.17 23.89-5.88 46.77-2.63 10.51 1.51 23.66-3.25 23.66-3.25s-7.63 14.84-22.07 23.74c-12.1 7.47-20.33 11-48.36 11.45-29.28.45-36.59-4.68-48.93-10.22" fill="#edb0a4"/><path d="m3195.18 2103.7-210.26 30.3-6.84-47.48 210.24-30.34 6.86 47.49" fill="#296e91"/><path d="m3774.05 2134.83-210.31-29.95 6.75-47.48 210.31 29.95z" fill="#296e91"/><path d="m3250 1073.93-70.16 74.24 109 164.18 92.37-70.14 86.55 70.14 115.08-167-66.21-71.41h-266.63" fill="#f0f0f0"/><path d="m3381.13 1242.21-131.19-168.29c6.25-30.15 0-59 0-59 9.06 7.07 19.1 13.35 30.81 21.27 35.1 23.9 70.71 30.31 99.4 30.31 30.81 0 77-12.34 99.56-29.48 9.06-7 18.95-14 28.51-21.94-.16 3.13-1.64 47.63 5.27 63.45z" fill="#efc2a3"/><path d="m3559.3 696.67c-131.87 15.24-296.67 2.84-377.36 4.49-163.44 3.39-188.44-101.95-151.56-97.76 79.91 9 89.32-8.25 112-24 30.11-20.92 12.43-39.94 33.41-179.49 6.11-40.52 58.82.19 199.68.19 126.74 0 197.26-44.9 203.89-1.9 19.94 129-2.08 151.79 31.85 173.38 40 25.51 39.89 27.7 91.72 31.86 26.35 2.11 37.13 72.35-143.67 93.27" fill="#7f5950"/><path d="m3608.35 569.29h-459.73l1.71-44.46h453.12z" fill="#634742"/><path d="m3919 1274.44-2 16-67.58 526.56-50.69 395.12 18 299.25-320.83 38.77-66.9-784.51c28.56-225.67 90.11-645.51 90.11-645.51l58.5-45.28 47.23 82.66z" fill="#e82828"/><path d="m3319.84 1765.62-34.48 784.55-328.15-38.8 6.73-337.45-43.74-334.37-79.2-549-2.14-16.53 301.64-113.65 46.75-91.33 62.92 55.83s37.23 407.76 69.67 640.78" fill="#e82828"/><path d="m2992 2313.64 184.3 21.27 3.65-30.07-184.3-21.24-3.65 30" fill="#97704f"/><g fill="#ffca5e"><path d="m3276.32 1917.22a19.64 19.64 0 1 1 -19.39-19.45 19.42 19.42 0 0 1 19.39 19.45"/><path d="m3266.38 2060a19.64 19.64 0 1 1 -19.39-19.45 19.42 19.42 0 0 1 19.39 19.45"/><path d="m3256.47 2202.77a19.65 19.65 0 1 1 -19.38-19.46 19.44 19.44 0 0 1 19.38 19.46"/><path d="m3246.54 2345.55a19.64 19.64 0 1 1 -19.38-19.46 19.44 19.44 0 0 1 19.38 19.46"/><path d="m3236.58 2488.33a19.63 19.63 0 1 1 -19.38-19.44 19.4 19.4 0 0 1 19.38 19.44"/></g><path d="m3772.62 2313.66-184.3 21.25-3.63-30 184.31-21.31 3.63 30.06" fill="#97704f"/><path d="m3488.34 1917.23a19.64 19.64 0 1 0 19.37-19.45 19.41 19.41 0 0 0 -19.37 19.45" fill="#ffca5e"/><path d="m3498.27 2060a19.64 19.64 0 1 0 19.36-19.45 19.4 19.4 0 0 0 -19.36 19.45" fill="#ffca5e"/><path d="m3508.18 2202.79a19.64 19.64 0 1 0 19.39-19.46 19.44 19.44 0 0 0 -19.39 19.46" fill="#ffca5e"/><path d="m3518.13 2345.55a19.64 19.64 0 1 0 19.39-19.44 19.42 19.42 0 0 0 -19.39 19.44" fill="#ffca5e"/><path d="m3528.07 2488.34a19.64 19.64 0 1 0 19.39-19.46 19.43 19.43 0 0 0 -19.39 19.46" fill="#ffca5e"/><path d="m3319.85 1765.6-185.63-398.18 128.58-105.87 57 504.05" fill="#d32020"/><path d="m3429 1765.6 185.62-398.18-116-105.87z" fill="#d32020"/></g></svg>