<svg width="459" height="313" xmlns="http://www.w3.org/2000/svg">
 <g>
  <title>Layer 1</title>
  <g id="svg_12">
   <g id="svg_20">
    <g id="svg_18">
     <rect fill="#000000" x="0" y="213.99998" width="115" height="100" id="svg_13"/>
     <rect fill="#000000" x="115" y="193.99998" width="115" height="120" id="svg_14"/>
     <rect fill="#000000" x="230" y="173.99998" width="115" height="140" id="svg_15"/>
     <rect fill="#000000" x="344" y="153.99998" width="115" height="160" id="svg_16"/>
    </g>
    <g id="svg_19">
     <g id="svg_28">
      <ellipse transform="rotate(-1, 56.3069, 92.394)" ry="32.39413" rx="32.39413" id="svg_1" cy="92.39421" cx="56.30695" fill="#000000"/>
      <path transform="rotate(-1, 57.2015, 169.122)" id="svg_2" d="m57.82201,209.12651c-12.62102,0 -36.4681,-2.47875 -44.73486,-9.71712c-8.26677,-7.23837 -1.61886,-32.10516 1.26553,-42.93422c2.88439,-10.82906 18.22729,-27.35749 43.46933,-27.35749c25.24204,0 39.3117,19.24023 42.88347,29.40366c3.57177,10.16344 6.79904,30.88429 2.68574,38.77846c-4.1133,7.89418 -32.94819,11.82669 -45.56921,11.82669l-0.00001,0.00001l0.00001,0.00001z" opacity="undefined" fill="#000000"/>
     </g>
     <g id="svg_5">
      <ellipse transform="rotate(-1, 171.307, 72.394)" ry="32.39413" rx="32.39413" id="svg_3" cy="72.3942" cx="171.30695" fill="#000000"/>
      <path transform="rotate(-1, 172.201, 149.122)" id="svg_4" d="m172.82201,189.1265c-12.62102,0 -36.4681,-2.47875 -44.73486,-9.71712c-8.26677,-7.23837 -1.61886,-32.10516 1.26553,-42.93422c2.88439,-10.82906 18.22729,-27.35749 43.46933,-27.35749c25.24204,0 39.3117,19.24023 42.88347,29.40366c3.57177,10.16344 6.79904,30.88429 2.68574,38.77846c-4.1133,7.89418 -32.94819,11.82669 -45.56921,11.82669l-0.00001,0.00001l0.00001,0.00001z" opacity="undefined" fill="#000000"/>
     </g>
     <g id="svg_8">
      <ellipse transform="rotate(-1, 286.307, 52.394)" ry="32.39413" rx="32.39413" id="svg_6" cy="52.3942" cx="286.30696" fill="#000000"/>
      <path transform="rotate(-1, 287.201, 129.122)" id="svg_7" d="m287.82202,169.1265c-12.62102,0 -36.4681,-2.47875 -44.73486,-9.71712c-8.26677,-7.23837 -1.61886,-32.10516 1.26553,-42.93422c2.88439,-10.82906 18.22729,-27.35749 43.46933,-27.35749c25.24204,0 39.3117,19.24023 42.88347,29.40366c3.57177,10.16344 6.79904,30.88429 2.68574,38.77846c-4.1133,7.89418 -32.94819,11.82669 -45.56921,11.82669l-0.00001,0.00001l0.00001,0.00001z" opacity="undefined" fill="#000000"/>
     </g>
     <g id="svg_11">
      <ellipse transform="rotate(-1, 401.307, 32.394)" ry="32.39413" rx="32.39413" id="svg_9" cy="32.39422" cx="401.30696" fill="#000000"/>
      <path transform="rotate(-1, 402.201, 109.122)" id="svg_10" d="m402.82202,149.12652c-12.62102,0 -36.4681,-2.47875 -44.73486,-9.71712c-8.26677,-7.23837 -1.61886,-32.10516 1.26553,-42.93422c2.88439,-10.82906 18.22729,-27.35749 43.46933,-27.35749c25.24204,0 39.3117,19.24023 42.88347,29.40366c3.57177,10.16344 6.79904,30.88429 2.68574,38.77846c-4.1133,7.89418 -32.94819,11.82669 -45.56921,11.82669l-0.00001,0.00001l0.00001,0.00001z" opacity="undefined" fill="#000000"/>
     </g>
    </g>
   </g>
   <text fill="#ffffff" x="37" y="250.5" id="svg_22" stroke-width="0" font-size="30" font-family="serif" text-anchor="start" xml:space="preserve" font-weight="bold">4th</text>
   <text fill="#ffffff" x="152" y="228.5" id="svg_25" stroke-width="0" font-size="30" font-family="serif" text-anchor="start" xml:space="preserve" font-weight="bold">3rd</text>
   <text fill="#ffffff" x="267" y="208.5" id="svg_26" stroke-width="0" font-size="30" font-family="serif" text-anchor="start" xml:space="preserve" font-weight="bold">2nd</text>
   <text fill="#ffffff" x="379" y="188.5" id="svg_27" stroke-width="0" font-size="30" font-family="serif" text-anchor="start" xml:space="preserve" font-weight="bold">1st</text>
   <text fill="#ffffff" x="356" y="210.5" id="svg_29" stroke-width="0" font-size="20" font-family="serif" text-anchor="start" xml:space="preserve" font-weight="normal">President</text>
   <text fill="#ffffff" x="236" y="228.5" id="svg_30" stroke-width="0" font-size="15" font-family="serif" text-anchor="start" xml:space="preserve" font-weight="normal">Vice-President</text>
   <text fill="#ffffff" x="131" y="249.5" id="svg_31" stroke-width="0" font-size="15" font-family="serif" text-anchor="start" xml:space="preserve" font-weight="normal">Vice-Asshole</text>
   <text fill="#ffffff" x="26" y="274.5" id="svg_32" stroke-width="0" font-size="20" font-family="serif" text-anchor="start" xml:space="preserve" font-weight="normal">Asshole</text>
  </g>
 </g>

</svg>