<svg width="500" height="500" xmlns="http://www.w3.org/2000/svg">
 <g>
  <title>Layer 1</title>
  <g id="svg_28">
   <ellipse transform="rotate(-1, 68.9196, 220.393)" ry="32.39413" rx="32.39413" id="svg_1" cy="220.39279" cx="68.91965" fill="#000000"/>
   <path transform="rotate(-1, 69.8142, 297.121)" id="svg_2" d="m70.43471,337.12509c-12.62102,0 -36.4681,-2.47875 -44.73486,-9.71712c-8.26677,-7.23837 -1.61886,-32.10516 1.26553,-42.93422c2.88439,-10.82906 18.22729,-27.35749 43.46933,-27.35749c25.24204,0 39.3117,19.24023 42.88347,29.40366c3.57177,10.16344 6.79904,30.88429 2.68574,38.77846c-4.1133,7.89418 -32.94819,11.82669 -45.56921,11.82669l-0.00001,0.00001l0.00001,0.00001z" opacity="undefined" fill="#000000"/>
  </g>
  <g id="svg_15">
   <ellipse transform="rotate(-1, 420.92, 224.393)" ry="32.39413" rx="32.39413" id="svg_13" cy="224.39279" cx="420.91965" fill="#000000"/>
   <path transform="rotate(-1, 421.814, 301.121)" id="svg_14" d="m422.4347,341.12509c-12.62102,0 -36.4681,-2.47875 -44.73486,-9.71712c-8.26677,-7.23837 -1.61886,-32.10516 1.26553,-42.93422c2.88439,-10.82906 18.22729,-27.35749 43.46933,-27.35749c25.24204,0 39.3117,19.24023 42.88347,29.40366c3.57177,10.16344 6.79904,30.88429 2.68574,38.77846c-4.1133,7.89418 -32.94819,11.82669 -45.56921,11.82669l-0.00001,0.00001l0.00001,0.00001z" opacity="undefined" fill="#000000"/>
  </g>
  <g id="svg_18">
   <ellipse transform="rotate(-1, 249.92, 32.3944)" ry="32.39413" rx="32.39413" id="svg_16" cy="32.39421" cx="249.91965" fill="#000000"/>
   <path transform="rotate(-1, 250.814, 109.122)" id="svg_17" d="m251.4347,149.12651c-12.62102,0 -36.4681,-2.47875 -44.73486,-9.71712c-8.26677,-7.23837 -1.61886,-32.10516 1.26553,-42.93422c2.88439,-10.82906 18.22729,-27.35749 43.46933,-27.35749c25.24204,0 39.3117,19.24023 42.88347,29.40366c3.57177,10.16344 6.79904,30.88429 2.68574,38.77846c-4.1133,7.89418 -32.94819,11.82669 -45.56921,11.82669l-0.00001,0.00001l0.00001,0.00001z" opacity="undefined" fill="#000000"/>
  </g>
  <path id="svg_23" d="m250.5,396.5c-67.40331,0 -122,-54.59669 -122,-122c0,-67.40331 54.59669,-122 122,-122c67.40331,0 122,54.59669 122,122c0,67.40331 -54.59669,122 -122,122z" opacity="undefined" fill="#000000"/>
  <g id="svg_5">
   <path transform="rotate(-1, 248.263, 420.21)" id="svg_4" d="m249.02197,469.11761c-15.42977,0 -44.5839,-3.03038 -54.69039,-11.87962c-10.1065,-8.84923 -1.97913,-39.25001 1.54717,-52.48903c3.5263,-13.23902 22.28369,-33.44577 53.14322,-33.44577c30.85954,0 48.06033,23.52205 52.42698,35.94731c4.36665,12.42527 8.31213,37.75744 3.28344,47.40842c-5.0287,9.65099 -40.28065,14.45866 -55.71042,14.45866l-0.00001,0.00001l0.00001,0.00001z" opacity="undefined" fill="#ffffff"/>
   <ellipse transform="rotate(-1, 247.032, 342.394)" ry="40" rx="40" id="svg_3" cy="342.39421" cx="247.03173" fill="#ffffff"/>
   <ellipse transform="rotate(-1, 247.032, 342.394)" ry="32.39413" rx="32.39413" id="svg_19" cy="342.39421" cx="247.03173" fill="#000000"/>
   <path transform="rotate(-1, 247.814, 419.122)" id="svg_20" d="m248.4347,459.12651c-12.62102,0 -36.4681,-2.47875 -44.73486,-9.71712c-8.26677,-7.23837 -1.61886,-32.10516 1.26553,-42.93422c2.88439,-10.82906 18.22729,-27.35749 43.46933,-27.35749c25.24204,0 39.3117,19.24023 42.88347,29.40366c3.57177,10.16344 6.79904,30.88429 2.68574,38.77846c-4.1133,7.89418 -32.94819,11.82669 -45.56921,11.82669l-0.00001,0.00001l0.00001,0.00001z" opacity="undefined" fill="#000000"/>
  </g>
 </g>

</svg>