<svg enable-background="new 0 0 108.089 240.951" viewBox="0 0 108.089 240.951" xmlns="http://www.w3.org/2000/svg"><path d="m35.729 49.167c-.425-.561-.831-1.14-1.207-1.745-3.245-5.215-4.267-11.38-2.869-17.364 2.437-10.471 11.642-17.785 22.377-17.785 1.751 0 3.511.203 5.233.605 12.346 2.877 20.051 15.262 17.178 27.609-.747 3.207-2.134 6.114-3.999 8.609 5.882-5.133 9.604-12.679 9.604-21.098 0-15.465-12.537-28-28-28s-28 12.535-28 28c-.001 8.459 3.755 16.035 9.683 21.169zm64.092 59.652c-2.346 1.794-5.915 3.468-11.104 3.468-.015 0-.03 0-.045 0-.461 0-.938-.02-1.421-.047.934 2.637 1.781 5.244 2.528 7.754 1.907 6.321 3.264 12.043 4.136 16.153.438 2.056.754 3.711.958 4.841.206 1.13.29 1.683.293 1.683.5 3.206 3.268 5.494 6.413 5.495.335 0 .674-.026 1.015-.08 3.547-.553 5.971-3.881 5.415-7.428-.046-.236-2.343-15.012-8.188-31.839z"/><path d="m100.173 105.5c.44-.814.813-1.463 1.144-2.042 1.13-1.981 1.727-3.102 2.523-6.917 1.029-4.928-7.838-10.635-7.875-14.375-.125-13-5.745-13.018-8.047-16.994-1.755-3.033-6.711-3.666-10.518-1.988-.45 4.217-2.308 17.02-10.302 24.623-2.827 2.653-6.532 4.582-11.054 5.016v28.641c5.375-.161 11.543-.94 16.54-1.732 1.146-.18 2.226-.359 3.225-.532-.803-2.023-1.472-4.408-1.782-7.763-.519-5.592.902-13.996 2.65-21.633.088.138.176.274.264.413.008.023.017.055.023.075.708 2.219.148 18.793 6.625 19.125.648.033 1.316.054 1.99.065 6.062.106 12.843-.739 14.594-3.982zm-67.794 125.451c0 5.524 4.477 10 10 10 5.521 0 10-4.476 10-10v-2.011c-3.424-.132-11.656-.514-20-1.368zm23.334 0c0 5.524 4.476 10 10 10 5.52 0 10-4.476 10-10v-3.379c-8.343.855-16.574 1.236-20 1.368z"/><circle cx="54.047" cy="35.274" r="20.995" transform="matrix(.2268043 -.97394035 .97394035 .2268043 7.435482 79.915955)"/><path d="m52.045 121.463v-28.639c-4.524-.433-8.23-2.362-11.057-5.018-3.246-3.032-5.433-6.945-6.959-10.779-2.268-5.724-3.082-11.328-3.355-13.851-3.805-1.668-8.75-1.033-10.502 1.996-2.302 3.977-7.922 3.994-8.047 16.994-.036 3.74-8.904 9.447-7.875 14.375.797 3.815 1.394 4.936 2.524 6.918.33.578.704 1.227 1.143 2.041 1.75 3.242 8.529 4.088 14.59 3.981.676-.012 1.344-.032 1.992-.065 6.478-.332 5.918-16.906 6.625-19.125.008-.024.02-.062.028-.091.086-.136.174-.268.261-.402 1.748 7.638 3.172 16.044 2.652 21.638-.312 3.355-.98 5.74-1.783 7.764.997.172 2.074.352 3.219.531 4.997.791 11.167 1.571 16.544 1.732zm20.337 2.349c1.116 7.949 10.063 71.718 10.608 77.188.545 5.477 1.918 10.166-8.748 10.5-4.248.133-36.146.133-40.394 0-10.666-.334-9.293-5.023-8.748-10.5.546-5.469 9.492-69.236 10.608-77.187-2.819-.434-5.316-.875-7.197-1.229-3.664 7.556-16.243 37.897-16.243 98.416.92.278 1.935.539 3.011.787 13.739 3.16 38.767 3.879 38.767 3.879s25.027-.719 38.767-3.879c1.076-.248 2.091-.509 3.011-.787 0-60.521-12.58-90.863-16.244-98.417-1.883.354-4.379.796-7.198 1.229z"/><path d="m19.37 112.289c-5.184 0-8.751-1.672-11.097-3.465-.879 2.533-1.683 5.022-2.413 7.42-4.073 13.515-5.751 24.223-5.781 24.415-.556 3.545 1.867 6.872 5.415 7.429.341.053.68.079 1.014.079 3.146 0 5.91-2.29 6.415-5.495-.003 0 .033-.225.12-.734.535-3.146 2.959-16.006 7.797-29.696-.484.027-.963.048-1.425.048-.015-.001-.03-.001-.045-.001zm16.704-41.876c1.285 4.954 3.68 10.802 7.642 14.469 2.65 2.448 5.894 4.019 10.327 4.034 7.665-.023 12.145-4.809 15.154-10.785 2.145-4.324 3.268-9.12 3.828-12.438-1.713-.79-3.705-1.536-6.002-2.152-.028-.013-.057-.025-.086-.038-1.709 1.931-6.834 4.414-12.893 4.414-6.058 0-11.184-2.483-12.893-4.414-.031.014-.063.027-.094.041-2.295.617-4.284 1.362-5.995 2.151.232 1.368.556 2.982 1.012 4.718z"/></svg>